<svg width="100" height="100" viewBox="0 0 100 100" fill="none" xmlns="http://www.w3.org/2000/svg">
<circle cx="50" cy="50" r="49.5" fill="white" stroke="#7DAFFC"/>
<path fill-rule="evenodd" clip-rule="evenodd" d="M66.8582 20.4746C63.1776 21.3061 60.2659 22.8423 57.5964 25.3607C53.377 29.3411 50.9964 34.6891 50.991 40.1998C50.9893 41.8685 51.3313 44.8192 51.552 45.0396C51.6001 45.0877 52.2969 44.9489 53.1006 44.7309C53.9042 44.5132 54.8947 44.2587 55.3016 44.1655C55.9992 44.0059 56.0345 43.9408 55.9181 43.0228C55.2469 37.7224 56.8159 32.8834 60.353 29.3463C63.0393 26.66 65.1548 25.6648 69.5371 25.0251L70.4571 24.891L70.3138 23.3599C70.0941 21.0146 69.7765 19.9762 69.2858 20.0004C69.0538 20.012 67.9614 20.2253 66.8582 20.4746ZM30.5736 20.6578C30.476 20.8953 30.3973 22.7538 30.3983 24.7881C30.4005 28.7195 30.6634 30.1263 31.9385 33.0325C33.6734 36.9871 37.3042 40.7529 41.3322 42.7762C42.0579 43.1404 42.7025 43.3875 42.7651 43.3251C43.0058 43.0842 43.3434 39.8413 43.2031 39.1149C43.0884 38.5196 42.6966 38.1066 41.4338 37.2487C38.5564 35.2937 36.3632 32.1103 35.4099 28.5037C34.6674 25.6941 34.7863 25.6046 37.1947 27.1613C41.8572 30.1746 44.5973 35.4812 44.2459 40.8163C44.1228 42.6852 43.5944 45.2083 43.2548 45.5476C43.169 45.6336 42.6818 45.5804 42.1723 45.4295C40.227 44.8529 36.9686 44.6101 34.878 44.8855C29.8341 45.55 25.7494 47.6128 22.4118 51.1806C21.0188 52.6698 18.6834 56.2283 18.6834 56.8617C18.6834 57.2336 21.372 58.5188 23.6245 59.2238C26.1079 60.001 31.7311 60.0595 34.2184 59.334C38.041 58.219 41.6722 55.9728 43.9899 53.2899L45.2544 51.8262L46.0292 52.4861L46.8042 53.1457L46.2933 53.8854C42.6712 59.1291 42.0604 67.0687 44.8118 73.137C45.7003 75.0966 47.3228 77.4034 48.8662 78.9022L49.997 80L50.8818 79.1488C53.3481 76.7766 55.7677 72.4675 56.5101 69.1253C57.0645 66.6303 57.0228 62.5323 56.4179 60.0501C56.1536 58.9651 55.3684 56.9296 54.6733 55.5265L53.4093 52.9755L53.971 52.5674C55.1554 51.7071 56.8489 50.8615 58.5082 50.302C60.877 49.5036 64.8847 49.4755 67.3368 50.2401C70.3045 51.1656 74.891 54.3683 74.2158 55.0434C73.7671 55.4922 68.8353 55.3854 67.1506 54.8905C65.1469 54.3019 62.9288 53.1622 61.5455 52.0104C60.9107 51.4819 60.2223 51.0497 60.0154 51.0497C59.4093 51.0497 56.373 52.2151 55.9955 52.5928C55.6986 52.8897 55.909 53.1851 57.4795 54.677C62.4968 59.443 69.4353 61.2214 76.1673 59.4669C78.1844 58.9412 81.3166 57.5317 81.3166 57.1495C81.3166 57.0215 80.9215 56.1649 80.4387 55.2464C77.9963 50.5979 73.4894 47.0604 68.0009 45.4832C65.7182 44.8273 60.1468 44.8317 57.8908 45.4911C55.5344 46.1801 53.3228 47.2239 51.5695 48.4751L50.019 49.5815L48.8383 48.6854C48.1888 48.1927 47.6231 47.7582 47.5812 47.72C47.5395 47.682 47.6818 47.2281 47.8976 46.7117C48.7076 44.7731 49.0701 42.174 48.9431 39.2135C48.7989 35.8468 48.3792 34.1797 46.9263 31.1994C44.3719 25.9594 39.7195 22.1581 34.104 20.7217C31.6926 20.105 30.8071 20.0889 30.5736 20.6578ZM39.99 49.7842L40.7066 49.94L39.2382 51.299C36.2959 54.0218 32.3794 55.3862 28.1082 55.1758C26.8499 55.1137 25.7491 54.9919 25.6621 54.9048C25.3053 54.5483 27.8893 52.385 30.0264 51.2509C31.0187 50.7242 32.9855 50.0337 34.3417 49.7356C35.0874 49.5719 39.1746 49.6071 39.99 49.7842ZM50.5538 57.7692C52.1436 60.8069 52.6528 64.9461 51.8309 68.152C51.3939 69.8566 50.2764 72.5028 49.9936 72.5028C49.6878 72.5028 48.7229 70.2783 48.2361 68.4508C47.7225 66.5233 47.6473 63.795 48.0539 61.85C48.3555 60.4062 49.7029 56.9678 49.9669 56.9678C50.0592 56.9678 50.3233 57.3285 50.5538 57.7692Z" fill="#0867B3"/>
<circle cx="59.8796" cy="39.9348" r="2.42545" fill="#EE2E30"/>
<circle cx="64.7305" cy="35.0839" r="2.42545" fill="#EE2E30"/>
<circle cx="67.8081" cy="29.0494" r="2.42545" fill="#EE2E30"/>
</svg>
