<svg width="100" height="100" viewBox="0 0 100 100" fill="none" xmlns="http://www.w3.org/2000/svg">
<circle cx="50" cy="50" r="49.5" fill="#1E3F99" stroke="#7DAFFC"/>
<path d="M72.414 73.669H27.5857V26.3012H72.414V73.669ZM24 22.5357V77.4643H76V22.5357H24Z" fill="white"/>
<path d="M58.8463 57.5315V51.0463L63.1796 53.6764V60.1613L57.8894 63.3888L53.5863 60.7295L58.8463 57.5315ZM50.0297 36.6119L55.2894 39.8394C55.2894 39.8394 55.2894 55.29 55.2894 55.3195C55.2596 55.3497 50.0596 58.5175 50.0297 58.5175C49.9999 58.4877 44.7402 55.3195 44.6805 55.3195C44.6805 55.29 44.6805 39.8394 44.6805 39.8394L50.0297 36.6119ZM41.124 51.0463V57.5315L46.4139 60.759L42.0802 63.4187L36.8205 60.1908V53.7063L41.124 51.0463ZM41.124 37.6875V46.6831L33.2345 51.5242V62.3125L41.9907 67.7218C42.0202 67.7218 50.0297 62.9404 50.0297 62.9404L57.7703 67.7218L66.7358 62.2528V51.5242L58.8466 46.6831V37.6875L50.0301 32.3081L41.124 37.6875Z" fill="white"/>
</svg>
