<svg width="100" height="100" viewBox="0 0 100 100" fill="none" xmlns="http://www.w3.org/2000/svg">
<circle cx="50" cy="50" r="49.5" fill="white" stroke="#7DAFFC"/>
<path d="M42.2113 54.7923C40.8374 56.3838 38.813 57.3939 36.5457 57.3939C32.4144 57.3939 29.0664 54.0516 29.0664 49.9203C29.0664 45.7911 32.4144 42.4478 36.5457 42.4478C40.6697 42.4478 44.0182 45.7911 44.0182 49.9203V68.9629H55.5971L55.5831 50.0018C55.5831 39.4756 47.0662 30.9556 36.5462 30.9556C26.0309 30.9556 17.5 39.4756 17.5 50.0018C17.5 60.5213 26.0314 69.0423 36.5462 69.0423C38.5083 69.0423 40.42 68.7465 42.2051 68.1848L42.2113 54.7923Z" fill="#E53534"/>
<path d="M60.9362 68.8814C61.7595 68.994 62.6087 69.0444 63.4605 69.0444C73.98 69.0444 82.5 60.5244 82.5 50.0049C82.5 39.4896 73.98 30.9613 63.4605 30.9613C58.8615 30.9613 54.6311 32.5953 51.3381 35.3137L51.3594 35.3635C54.2288 38.276 56.2381 42.0346 56.9892 46.2193L57.0183 46.2084C58.3207 44.0034 60.7182 42.5293 63.4605 42.5293C67.5886 42.5293 70.9403 45.8788 70.9403 50.0049C70.9403 54.131 67.5886 57.4858 63.4605 57.4858C62.5718 57.4858 61.7195 57.3264 60.9212 57.0399L60.9362 68.8814Z" fill="#E53534"/>
</svg>
