<svg width="100" height="100" viewBox="0 0 100 100" fill="none" xmlns="http://www.w3.org/2000/svg">
<circle cx="50" cy="50" r="49.5" fill="#1E3F99" stroke="#7DAFFC"/>
<path d="M34.2808 70.5231L34.2806 70.5229C31.2482 68.3337 29.3752 66.4985 28.2478 64.4429C27.1245 62.3946 26.712 60.0731 26.712 56.8499C26.712 49.4038 30.0578 44.3801 38.8049 32.9464C38.8049 32.9463 38.8049 32.9463 38.805 32.9463L50 18.3225L61.195 32.9463C61.1951 32.9463 61.1951 32.9463 61.1951 32.9464C69.9421 44.38 73.288 49.4037 73.288 56.8601C73.288 60.0781 72.8756 62.3997 71.7521 64.4494C70.6247 66.5064 68.7516 68.3441 65.7194 70.5331L65.7194 70.5332L50.0001 81.8832L34.2808 70.5231ZM40.8906 60.5726L40.8894 60.5712C38.1469 57.2802 35.4287 53.2951 33.6387 50.6706C33.5724 50.5734 33.5073 50.478 33.4436 50.3847C33.3489 50.2375 33.1457 50.0167 32.8113 50.0167C32.5955 50.0167 32.4487 50.1341 32.3854 50.1931C32.3123 50.2611 32.2581 50.3382 32.221 50.3975C32.1478 50.5147 32.0913 50.6448 32.0572 50.7384C31.214 52.8599 30.93 54.8554 30.93 56.7578C30.93 58.1163 31.0014 59.8529 31.7427 61.7251C32.4869 63.6042 33.8909 65.584 36.4987 67.4663L36.4987 67.4663L36.4994 67.4668L36.5021 67.4687L36.5127 67.4764L36.5546 67.5066L36.7172 67.6241L37.3293 68.0663L39.4694 69.6122L45.5613 74.0126C45.5616 74.0129 45.562 74.0131 45.5623 74.0134C45.7171 74.1262 46.0375 74.3133 46.3858 74.172C46.7717 74.0154 46.8408 73.6136 46.8472 73.378C46.8472 73.3774 46.8472 73.3768 46.8472 73.3762L46.9494 70.2192C46.9494 70.2188 46.9494 70.2185 46.9494 70.2182C46.9777 69.4009 46.9664 68.7675 46.8254 68.1885C46.6807 67.5944 46.4088 67.0927 45.977 66.5138C45.5811 65.9831 45.0302 65.3613 44.2933 64.5296C44.2424 64.4721 44.1905 64.4136 44.1378 64.3541C43.316 63.4261 42.2563 62.2237 40.8906 60.5726ZM49.464 64.5488L49.4778 64.5652L49.493 64.5803C49.5884 64.6757 49.7593 64.7984 50 64.7984C50.2407 64.7984 50.4116 64.6757 50.507 64.5803L50.5222 64.5652L50.536 64.5488L61.7598 51.2173L61.7602 51.2168C63.1083 49.6119 63.852 47.8136 63.852 46.0046C63.852 44.7631 63.3857 43.5067 62.5599 42.3658L62.5588 42.3642L50.5676 25.9326L50.5611 25.9237L50.5541 25.915C50.4257 25.7544 50.2246 25.6455 50 25.6455C49.7754 25.6455 49.5743 25.7544 49.4459 25.915L49.4389 25.9237L49.4324 25.9326L37.4419 42.3633C37.4418 42.3635 37.4417 42.3636 37.4415 42.3638C36.6024 43.5082 36.148 44.7655 36.148 46.0046C36.148 47.8136 36.8917 49.6119 38.2398 51.2168L38.2402 51.2173L49.464 64.5488ZM63.2201 67.0624L63.5117 67.4662L63.512 67.466C66.1147 65.5836 67.5158 63.6039 68.2598 61.7265C69.0009 59.8561 69.075 58.1225 69.0802 56.77V56.7681C69.0802 54.876 68.7962 52.8703 67.953 50.7486C67.919 50.655 67.8625 50.5249 67.7892 50.4077C67.7522 50.3484 67.6979 50.2714 67.6249 50.2033C67.5616 50.1443 67.4147 50.0269 67.199 50.0269C66.8843 50.0269 66.6698 50.2357 66.5672 50.394C66.4972 50.4962 66.4256 50.6008 66.3524 50.7077C64.5614 53.3234 61.8435 57.2927 59.1199 60.5826C57.7543 62.231 56.6946 63.4308 55.8728 64.3565C55.8176 64.4187 55.7634 64.4797 55.7101 64.5397C54.9769 65.3652 54.4282 65.983 54.0336 66.5108C53.6016 67.0886 53.3296 67.5898 53.1849 68.1844C53.0439 68.7637 53.0325 69.3984 53.0608 70.2181C53.0608 70.2185 53.0608 70.2188 53.0608 70.2191L53.163 73.3762C53.163 73.3768 53.163 73.3774 53.163 73.378C53.1694 73.6136 53.2386 74.0154 53.6245 74.172C53.9726 74.3132 54.2929 74.1264 54.4477 74.0135C54.4481 74.0132 54.4485 74.0129 54.4489 74.0126L60.5408 69.6122L62.6809 68.0663L63.293 67.6241L63.4557 67.5066L63.4975 67.4764L63.5082 67.4687L63.5108 67.4668L63.5115 67.4663L63.5117 67.4662L63.2199 67.0621L63.2201 67.0624Z" fill="white" stroke="#7DAFFC"/>
</svg>
