<svg width="100" height="100" viewBox="0 0 100 100" fill="none" xmlns="http://www.w3.org/2000/svg">
<circle cx="50" cy="50" r="49.5" fill="white" stroke="#7DAFFC"/>
<path d="M41.6657 48.8536C41.6657 47.1919 41.6657 46.885 41.6422 46.5357C41.6212 46.164 41.512 45.9784 41.2713 45.9227C41.1516 45.8905 41.0091 45.8788 40.878 45.8788C40.7682 45.8788 40.7022 45.8572 40.7022 45.7696C40.7022 45.7042 40.7898 45.6827 40.9651 45.6827C41.3805 45.6827 42.0687 45.7153 42.3867 45.7153C42.6603 45.7153 43.305 45.6827 43.7198 45.6827C43.8626 45.6827 43.9501 45.7042 43.9501 45.7696C43.9501 45.8573 43.8842 45.8788 43.7761 45.8788C43.6649 45.8788 43.5779 45.8906 43.4478 45.9121C43.1514 45.9665 43.0642 46.1529 43.0435 46.5357C43.0205 46.885 43.0205 47.1919 43.0205 48.8536V50.7773C43.0205 51.8384 43.0205 52.702 43.0642 53.173C43.0969 53.468 43.1742 53.6636 43.502 53.7083C43.6544 53.7304 43.8945 53.7526 44.0586 53.7526C44.1803 53.7526 44.2339 53.7841 44.2339 53.839C44.2339 53.916 44.1463 53.9475 44.0266 53.9475C43.305 53.9475 42.616 53.916 42.321 53.916C42.0684 53.916 41.3804 53.9475 40.9433 53.9475C40.8008 53.9475 40.7249 53.916 40.7249 53.839C40.7249 53.7841 40.7679 53.7526 40.9002 53.7526C41.0631 53.7526 41.1944 53.7303 41.2927 53.7083C41.5117 53.6636 41.5765 53.4779 41.6106 53.1612C41.6656 52.702 41.6656 51.8384 41.6656 50.7773V48.8536H41.6657Z" fill="#AD073D"/>
<path d="M21.3597 49.9139C21.1308 49.7504 20.8794 49.6738 20.4529 49.6509C20.2554 49.6396 20.1469 49.6396 19.9819 49.6396C19.9388 49.6396 19.9166 49.6627 19.9166 49.7171V52.3095C19.9166 53.0305 19.9493 53.2161 20.2999 53.3576C20.5944 53.4779 20.8467 53.4898 21.0979 53.4898C21.5899 53.4898 22.4208 53.2269 22.4208 52.0886C22.4208 51.412 22.1906 50.4922 21.3597 49.9139ZM19.9166 49.0386C19.9166 49.1269 19.9493 49.1485 19.9939 49.1598C20.092 49.1811 20.2555 49.1916 20.5074 49.1916C20.8677 49.1916 21.1085 49.1485 21.295 48.9843C21.5782 48.7547 21.7431 48.3608 21.7431 47.8258C21.7431 47.093 21.3166 46.1301 20.3757 46.1301C20.2227 46.1301 20.1247 46.1301 20.0147 46.1529C19.9388 46.1745 19.9166 46.2176 19.9166 46.338V49.0386V49.0386ZM18.6043 48.8536C18.6043 47.1919 18.6043 46.885 18.5827 46.5357C18.5609 46.164 18.4733 45.9889 18.1124 45.9121C18.0253 45.8905 17.8388 45.8788 17.6872 45.8788C17.5655 45.8788 17.5 45.8572 17.5 45.7813C17.5 45.7042 17.5772 45.6827 17.74 45.6827C18.3203 45.6827 19.0098 45.7153 19.2283 45.7153C19.7641 45.7153 20.19 45.6827 20.5616 45.6827C22.541 45.6827 22.8906 46.7424 22.8906 47.322C22.8906 48.218 22.3763 48.7546 21.7751 49.236C22.6721 49.5422 23.7658 50.318 23.7658 51.5976C23.7658 52.7667 22.8578 53.9808 20.8467 53.9808C20.5839 53.9808 19.5881 53.916 19.2603 53.916C19.0098 53.916 18.3202 53.9475 17.8832 53.9475C17.7399 53.9475 17.6649 53.916 17.6649 53.839C17.6649 53.7841 17.7078 53.7526 17.8386 53.7526C18.0036 53.7526 18.1344 53.7303 18.2326 53.7083C18.451 53.6636 18.506 53.4242 18.5492 53.1057C18.6042 52.6478 18.6042 51.7835 18.6042 50.7773V48.8536H18.6043Z" fill="#555759"/>
<path d="M28.1004 50.5485C28.1561 50.5485 28.1673 50.5158 28.1561 50.4825L27.1715 47.7814C27.1611 47.7382 27.1506 47.6832 27.1179 47.6832C27.0852 47.6832 27.0618 47.7383 27.0512 47.7814L26.0465 50.4714C26.0345 50.5159 26.0465 50.5486 26.0896 50.5486H28.1004V50.5485ZM25.871 51.0954C25.8161 51.0954 25.7937 51.1162 25.7729 51.183L25.1815 52.7452C25.0729 53.0187 25.0181 53.2815 25.0181 53.4124C25.0181 53.6099 25.1162 53.7526 25.4551 53.7526H25.6198C25.7507 53.7526 25.7833 53.7734 25.7833 53.839C25.7833 53.9266 25.7178 53.9475 25.5969 53.9475C25.2475 53.9475 24.7773 53.916 24.4383 53.916C24.318 53.916 23.7167 53.9475 23.1484 53.9475C23.0055 53.9475 22.941 53.9266 22.941 53.839C22.941 53.7734 22.9841 53.7526 23.0717 53.7526C23.1692 53.7526 23.3236 53.7409 23.4107 53.7302C23.9137 53.6635 24.1218 53.2921 24.3396 52.7451L27.0852 45.8787C27.2154 45.5615 27.2808 45.4423 27.3901 45.4423C27.4887 45.4423 27.5548 45.541 27.6646 45.7916C27.9264 46.3929 29.6757 50.8545 30.3756 52.5161C30.7905 53.5007 31.1077 53.6536 31.3381 53.7082C31.5015 53.7409 31.6658 53.7524 31.7967 53.7524C31.8843 53.7524 31.9393 53.7629 31.9393 53.8389C31.9393 53.9265 31.8399 53.9474 31.4357 53.9474C31.0431 53.9474 30.2443 53.9474 29.3697 53.9265C29.1734 53.9159 29.0412 53.9159 29.0412 53.8389C29.0412 53.7733 29.0844 53.7524 29.1943 53.7407C29.2716 53.7183 29.3475 53.6203 29.2936 53.4896L28.4184 51.1711C28.3961 51.1161 28.3635 51.0953 28.3099 51.0953H25.871V51.0954Z" fill="#555759"/>
<path d="M68.1393 50.5485C68.1944 50.5485 68.2049 50.5158 68.1944 50.4825L67.2103 47.7814C67.1986 47.7382 67.1881 47.6832 67.1553 47.6832C67.1227 47.6832 67.1005 47.7383 67.0887 47.7814L66.0839 50.4714C66.0735 50.5159 66.0839 50.5486 66.1284 50.5486H68.1393V50.5485ZM65.9086 51.0954C65.8548 51.0954 65.8314 51.1162 65.8105 51.183L65.2205 52.7452C65.1104 53.0187 65.0555 53.2815 65.0555 53.4124C65.0555 53.6099 65.1537 53.7526 65.4938 53.7526H65.6582C65.7881 53.7526 65.821 53.7734 65.821 53.839C65.821 53.9266 65.7556 53.9475 65.636 53.9475C65.286 53.9475 64.8162 53.916 64.4768 53.916C64.357 53.916 63.7546 53.9475 63.1867 53.9475C63.0447 53.9475 62.9787 53.9266 62.9787 53.839C62.9787 53.7734 63.0224 53.7526 63.1102 53.7526C63.2083 53.7526 63.3614 53.7409 63.449 53.7302C63.9513 53.6635 64.1596 53.2921 64.3781 52.7451L67.123 45.8787C67.2544 45.5615 67.3192 45.4423 67.4284 45.4423C67.5279 45.4423 67.5926 45.541 67.7026 45.7916C67.964 46.3929 69.7147 50.8545 70.4133 52.5161C70.8293 53.5007 71.1459 53.6536 71.3758 53.7082C71.5405 53.7409 71.7037 53.7524 71.8356 53.7524C71.9228 53.7524 71.9771 53.7629 71.9771 53.8389C71.9771 53.9265 71.879 53.9474 71.4747 53.9474C71.0807 53.9474 70.2826 53.9474 69.4079 53.9265C69.2118 53.9159 69.079 53.9159 69.079 53.8389C69.079 53.7733 69.1234 53.7524 69.2321 53.7407C69.31 53.7183 69.3864 53.6203 69.3315 53.4896L68.4569 51.1711C68.4353 51.1161 68.4011 51.0953 68.3462 51.0953H65.9086V51.0954Z" fill="#555759"/>
<path d="M33.152 52.4614C33.1749 53.3151 33.3169 53.5997 33.5355 53.6757C33.7212 53.7411 33.9287 53.7527 34.1045 53.7527C34.2244 53.7527 34.2904 53.7736 34.2904 53.8391C34.2904 53.9267 34.1917 53.9476 34.0392 53.9476C33.3277 53.9476 32.8904 53.9161 32.6825 53.9161C32.5844 53.9161 32.0701 53.9476 31.5016 53.9476C31.3596 53.9476 31.2609 53.9376 31.2609 53.8391C31.2609 53.7736 31.3271 53.7527 31.4357 53.7527C31.5782 53.7527 31.7746 53.741 31.9275 53.6966C32.2121 53.6099 32.2559 53.2923 32.2676 52.3409L32.3657 45.8671C32.3657 45.65 32.3985 45.4969 32.5085 45.4969C32.6281 45.4969 32.7257 45.6389 32.9123 45.836C33.0437 45.9785 34.7052 47.7598 36.3015 49.3455C37.046 50.0894 38.5219 51.6634 38.7076 51.8386H38.7626L38.6527 46.9296C38.6422 46.2623 38.5435 46.0544 38.2811 45.9445C38.1177 45.8789 37.8547 45.8789 37.7016 45.8789C37.57 45.8789 37.5261 45.8469 37.5261 45.7814C37.5261 45.6933 37.6465 45.6828 37.8102 45.6828C38.3793 45.6828 38.904 45.7154 39.1329 45.7154C39.2547 45.7154 39.6693 45.6828 40.2059 45.6828C40.3471 45.6828 40.4571 45.6933 40.4571 45.7814C40.4571 45.8469 40.3915 45.8789 40.2594 45.8789C40.1509 45.8789 40.0631 45.8789 39.9317 45.9122C39.6261 45.9995 39.5385 46.2296 39.5279 46.8419L39.4064 53.741C39.4064 53.9809 39.3632 54.0798 39.2649 54.0798C39.1452 54.0798 39.0131 53.9587 38.8929 53.8391C38.2052 53.1837 36.8052 51.7509 35.6675 50.6243C34.4762 49.4428 33.262 48.077 33.0658 47.8695H33.0317L33.152 52.4614Z" fill="#555759"/>
<path d="M50.4042 48.8536C50.4042 47.1919 50.4042 46.885 50.3819 46.5357C50.3603 46.164 50.2511 45.9784 50.0117 45.9227C49.8907 45.8905 49.7482 45.8788 49.6172 45.8788C49.508 45.8788 49.4426 45.8572 49.4426 45.7696C49.4426 45.7042 49.5295 45.6827 49.7056 45.6827C50.119 45.6827 50.8086 45.7153 51.1264 45.7153C51.3985 45.7153 52.0449 45.6827 52.4604 45.6827C52.6024 45.6827 52.6887 45.7042 52.6887 45.7696C52.6887 45.8573 52.6234 45.8788 52.5142 45.8788C52.4048 45.8788 52.3184 45.8906 52.187 45.9121C51.892 45.9665 51.8042 46.1529 51.782 46.5357C51.7599 46.885 51.7599 47.1919 51.7599 48.8536V50.7773C51.7599 51.8384 51.7599 52.702 51.8042 53.173C51.837 53.468 51.9128 53.6636 52.2419 53.7083C52.3943 53.7304 52.635 53.7526 52.7987 53.7526C52.9197 53.7526 52.9738 53.7841 52.9738 53.839C52.9738 53.916 52.8862 53.9475 52.7658 53.9475C52.0449 53.9475 51.3554 53.916 51.0611 53.916C50.8085 53.916 50.1189 53.9475 49.6832 53.9475C49.5408 53.9475 49.4643 53.916 49.4643 53.839C49.4643 53.7841 49.508 53.7526 49.6389 53.7526C49.8036 53.7526 49.9345 53.7303 50.0326 53.7083C50.2512 53.6636 50.3178 53.4779 50.3499 53.1612C50.4042 52.702 50.4042 51.8384 50.4042 50.7773V48.8536Z" fill="#555759"/>
<path d="M53.3508 53.8169C53.1761 53.741 53.1428 53.686 53.1428 53.4452C53.1428 52.8441 53.1858 52.1878 53.1976 52.0139C53.2095 51.8497 53.2415 51.7299 53.3285 51.7299C53.4278 51.7299 53.4382 51.828 53.4382 51.9143C53.4382 52.057 53.4827 52.2872 53.5364 52.4725C53.7771 53.2817 54.4221 53.5774 55.0999 53.5774C56.0838 53.5774 56.566 52.91 56.566 52.3298C56.566 51.7941 56.4018 51.2813 55.4937 50.5813L54.9912 50.1868C53.7883 49.2465 53.3729 48.4813 53.3729 47.5954C53.3729 46.393 54.3783 45.5297 55.8986 45.5297C56.6086 45.5297 57.0683 45.6388 57.3524 45.7154C57.451 45.7376 57.5054 45.7697 57.5054 45.8469C57.5054 45.989 57.4619 46.3056 57.4619 47.158C57.4619 47.3993 57.4289 47.4856 57.3426 47.4856C57.2654 47.4856 57.2321 47.4214 57.2321 47.29C57.2321 47.1919 57.1779 46.8524 56.9487 46.5684C56.7841 46.3603 56.4666 46.0327 55.7562 46.0327C54.947 46.0327 54.4551 46.5029 54.4551 47.158C54.4551 47.661 54.7061 48.0443 55.6142 48.7339L55.9196 48.9627C57.232 49.9795 57.7134 50.7126 57.7134 51.7509C57.7134 52.3855 57.4726 53.1399 56.6857 53.6539C56.1389 54.0041 55.5265 54.1022 54.9469 54.1022C54.3131 54.1022 53.8219 54.0247 53.3508 53.8169Z" fill="#555759"/>
<path d="M60.1542 50.7774C60.1542 52.1775 60.1542 52.9312 60.3832 53.1286C60.5696 53.2923 60.853 53.3688 61.706 53.3688C62.2863 53.3688 62.7122 53.3577 62.9858 53.0633C63.1165 52.9213 63.2486 52.6145 63.2695 52.4064C63.2808 52.3098 63.3032 52.2435 63.3899 52.2435C63.4666 52.2435 63.4783 52.2971 63.4783 52.4288C63.4783 52.5491 63.4018 53.3688 63.3141 53.6861C63.2486 53.9268 63.1938 53.981 62.6253 53.981C61.0507 53.981 60.3285 53.9162 59.4427 53.9162C59.1915 53.9162 58.5032 53.9477 58.0654 53.9477C57.9236 53.9477 57.8465 53.9162 57.8465 53.8392C57.8465 53.7843 57.891 53.7528 58.0218 53.7528C58.186 53.7528 58.3174 53.7305 58.4156 53.7085C58.6341 53.6639 58.6892 53.4244 58.7322 53.1059C58.7871 52.6481 58.7871 51.7837 58.7871 50.7776V48.8538C58.7871 47.1921 58.7871 46.8852 58.7662 46.5359C58.7441 46.1642 58.6564 45.9891 58.2953 45.9123C58.208 45.8907 58.0755 45.879 57.9349 45.879C57.8145 45.879 57.7485 45.8574 57.7485 45.7815C57.7485 45.7044 57.8257 45.6829 57.9892 45.6829C58.5034 45.6829 59.1916 45.7155 59.4872 45.7155C59.7497 45.7155 60.5483 45.6829 60.9742 45.6829C61.1273 45.6829 61.2038 45.7044 61.2038 45.7815C61.2038 45.8574 61.1383 45.879 61.0061 45.879C60.8864 45.879 60.7118 45.8909 60.5804 45.9123C60.2846 45.9668 60.1977 46.1531 60.1755 46.5359C60.1543 46.8852 60.1543 47.1921 60.1543 48.8538L60.1542 50.7774Z" fill="#555759"/>
<path d="M73.2393 45.7258C73.2708 45.5412 73.3374 45.4425 73.4251 45.4425C73.5129 45.4425 73.5782 45.4969 73.7195 45.7814L76.7051 51.9478L79.6792 45.7043C79.7558 45.5296 79.8219 45.4425 79.9198 45.4425C80.0184 45.4425 80.0835 45.5518 80.1161 45.7814L81.1117 52.5385C81.2099 53.2269 81.32 53.5433 81.6481 53.6415C81.9647 53.741 82.1834 53.7527 82.3251 53.7527C82.4235 53.7527 82.5 53.7632 82.5 53.8286C82.5 53.9162 82.3686 53.9477 82.2159 53.9477C81.9424 53.9477 80.4332 53.9162 79.9962 53.883C79.745 53.8611 79.679 53.8286 79.679 53.7632C79.679 53.7084 79.7226 53.6757 79.7994 53.6415C79.8646 53.6207 79.8974 53.478 79.8543 53.1732L79.1973 48.3609H79.1545L76.7704 53.3253C76.5194 53.8391 76.4651 53.9377 76.3661 53.9377C76.2674 53.9377 76.1581 53.7185 75.9828 53.3911C75.7209 52.8881 74.8571 51.2145 74.7254 50.9082C74.6273 50.6787 73.9711 49.3017 73.5884 48.4813H73.5446L72.9775 52.8329C72.9552 53.0306 72.9436 53.1732 72.9436 53.3472C72.9436 53.554 73.0854 53.6538 73.2705 53.6966C73.4688 53.741 73.6213 53.7527 73.731 53.7527C73.8182 53.7527 73.8952 53.7736 73.8952 53.8286C73.8952 53.9267 73.7965 53.9477 73.6322 53.9477C73.1735 53.9477 72.681 53.9162 72.4855 53.9162C72.2767 53.9162 71.7521 53.9477 71.402 53.9477C71.2923 53.9477 71.2043 53.9268 71.2043 53.8286C71.2043 53.7736 71.2699 53.7527 71.379 53.7527C71.4681 53.7527 71.5432 53.7527 71.7075 53.7185C72.0144 53.6537 72.1019 53.2269 72.1569 52.8551L73.2393 45.7258Z" fill="#555759"/>
<path d="M56.8848 57.5111C50.1427 57.42 44.6489 53.72 44.6254 49.363C44.6019 45.1317 49.7751 41.8686 56.173 41.9667C56.96 41.9777 57.7306 42.0407 58.4786 42.1467C57.4592 41.9629 56.3942 41.8555 55.3006 41.8385C48.5074 41.7353 42.993 45.1533 42.993 49.5934C42.993 54.1713 48.8205 58.0664 55.9977 58.1621C61.835 58.2405 66.5667 55.7704 67.8968 52.3697C66.4673 55.4137 62.1561 57.5824 56.8848 57.5111Z" fill="#AD073D"/>
</svg>
