<svg width="100" height="100" viewBox="0 0 100 100" fill="none" xmlns="http://www.w3.org/2000/svg">
<circle cx="50" cy="50" r="49.5" fill="white" stroke="#7DAFFC"/>
<path d="M61.5236 37.3141C61.5236 37.3141 62.6555 44.8502 71.8239 47.7394C71.8239 47.7394 82.5 52.0088 82.5 62.6859H76.742C76.742 52.0088 66.0662 47.7394 66.0662 47.7394C56.8978 44.8502 55.7669 37.3141 55.7669 37.3141" stroke="#36337C" stroke-width="2.45578" stroke-miterlimit="10"/>
<path d="M55.7461 37.3141C55.7461 37.3141 54.6152 44.8502 45.4465 47.7394C45.4465 47.7394 34.7714 52.0088 34.7714 62.6859H29.0147C29.0147 52.0088 39.6892 47.7394 39.6892 47.7394C48.8588 44.8502 49.9891 37.3141 49.9891 37.3141" stroke="#36337C" stroke-width="2.45578" stroke-miterlimit="10"/>
<path d="M50.0099 37.3141C50.0099 37.3141 51.1402 44.8502 60.3105 47.7394C60.3105 47.7394 70.9866 52.0088 70.9866 62.6859H65.229C65.229 52.0088 54.5525 47.7394 54.5525 47.7394C45.3832 44.8502 44.2542 37.3141 44.2542 37.3141" stroke="#36337C" stroke-width="2.45578" stroke-miterlimit="10"/>
<path d="M44.2318 37.3141C44.2318 37.3141 43.1015 44.8502 33.9328 47.7394C33.9328 47.7394 23.2573 52.0088 23.2573 62.6859H17.5C17.5 52.0088 28.1755 47.7394 28.1755 47.7394C37.3448 44.8502 38.4754 37.3141 38.4754 37.3141" stroke="#36337C" stroke-width="2.45578" stroke-miterlimit="10"/>
<path d="M38.4975 37.3141C38.4975 37.3141 39.6265 44.8502 48.7951 47.7394C48.7951 47.7394 59.4719 52.0088 59.4719 62.6859H40.5274C40.5274 52.0088 51.2038 47.7394 51.2038 47.7394C60.3715 44.8502 61.5021 37.3141 61.5021 37.3141" stroke="#36337C" stroke-width="2.45578" stroke-miterlimit="10"/>
</svg>
