<svg width="100" height="100" viewBox="0 0 100 100" fill="none" xmlns="http://www.w3.org/2000/svg">
<circle cx="50" cy="50" r="49.5" fill="white" stroke="#7DAFFC"/>
<path d="M47.8769 42.7097C45.4472 41.5854 42.9854 40.5306 40.4949 39.5466C32.7842 42.5128 25.3237 46.0922 18.1845 50.2503C20.6688 51.3732 23.1182 52.5674 25.532 53.833C32.686 49.5614 40.1562 45.8431 47.8769 42.7097Z" fill="#0067B1"/>
<path d="M8.18167 46.2038C15.5378 42.1493 23.2753 38.829 31.2824 36.2925C33.383 36.9531 35.4683 37.6635 37.5349 38.4223C29.7504 41.2079 22.2458 44.7203 15.1191 48.9123C12.8375 47.9495 10.5199 47.0494 8.18167 46.2038Z" fill="#0067B1"/>
<path d="M57.2714 38.9553C50.9437 35.8942 44.3895 33.3275 37.6662 31.2786C35.2963 31.9613 32.9452 32.7057 30.6181 33.5162C37.5397 35.5665 44.2884 38.1634 50.7986 41.2829C52.9394 40.4604 55.097 39.6839 57.2714 38.9553ZM67.5707 35.8851C61.0927 33.0616 54.4206 30.7047 47.6062 28.8331C45.4348 29.2825 43.2724 29.7831 41.1253 30.3349C47.8841 32.3105 54.4795 34.8087 60.8522 37.8065C63.0769 37.1177 65.3178 36.4772 67.5707 35.8851ZM84.1063 41.4405C68.0278 46.8628 52.8273 54.605 38.9864 64.4215C42.4163 66.5317 45.7686 68.7678 49.0333 71.1252C62.0761 60.7765 76.4704 52.2582 91.8183 45.807C89.2904 44.2769 86.7185 42.8206 84.1063 41.4405ZM72.9628 36.1457C56.2592 40.5706 40.3929 47.7035 25.9963 57.2603C29.2111 58.8407 32.3699 60.5322 35.4669 62.331C49.5723 52.5605 65.1252 45.0668 81.5568 40.1255C78.7348 38.709 75.8687 37.3821 72.9628 36.1457ZM54.3205 69.3901C54.3205 68.4201 55.1363 67.6311 56.1385 67.6311C57.1416 67.6311 57.9574 68.4201 57.9574 69.3901C57.9574 70.3779 57.1416 71.1669 56.1385 71.1669C55.1363 71.1669 54.3205 70.3779 54.3205 69.3901ZM54.664 69.3901C54.664 70.1973 55.3198 70.8186 56.1385 70.8186C56.9495 70.8186 57.6072 70.1973 57.6072 69.3901C57.6072 68.6093 56.9504 67.9808 56.1385 67.9808C55.3217 67.9808 54.664 68.6088 54.664 69.3901Z" fill="#E31836"/>
</svg>
