<svg width="100" height="100" viewBox="0 0 100 100" fill="none" xmlns="http://www.w3.org/2000/svg">
<circle cx="50" cy="50" r="49.5" fill="white" stroke="#7DAFFC"/>
<path d="M50.0006 17.5C32.0485 17.5 17.4987 32.0483 17.4987 50C17.4987 67.9506 32.0485 82.5 50.0006 82.5C67.9497 82.5 82.5013 67.9506 82.5013 50C82.5013 32.0483 67.9497 17.5 50.0006 17.5ZM24.4869 50.0004C24.4869 37.2113 33.8954 26.6335 46.1668 24.7855V36.7226L40.8517 36.7406C36.8559 36.7406 34.432 39.6748 34.432 43.6672V56.177C34.432 60.1713 37.7064 63.2524 41.6996 63.2524L46.1459 63.2539L46.1664 75.2368C33.8954 73.3852 24.4869 62.7854 24.4869 50.0004ZM42.1538 56.255C42.1538 56.255 41.7986 56.2184 41.6215 55.9101C41.4481 55.608 41.4954 55.4475 41.4954 55.4475V44.594C41.4954 44.594 41.4778 44.2101 41.6882 43.9766C41.8858 43.7549 42.2524 43.7461 42.2524 43.7461H57.5955C57.5955 43.7461 57.8404 43.7109 58.123 43.8663C58.3653 43.9964 58.502 44.5078 58.502 44.5078V55.6458C58.502 55.6458 58.3653 55.9545 58.2348 56.0633C58.1105 56.1693 57.8594 56.2517 57.8594 56.2517L53.7991 56.2594L42.1538 56.255ZM53.7331 75.2566L53.71 63.1692H58.498C62.4934 63.1692 65.4272 60.1705 65.4272 56.177V43.6665C65.4272 39.674 62.2438 36.7586 58.2509 36.7586L53.71 36.7637L53.7078 24.7551C66.042 26.5514 75.5116 37.1695 75.5116 50C75.5116 62.8265 66.0618 73.4596 53.7331 75.2566Z" fill="#B30738"/>
</svg>
