<svg width="100" height="100" viewBox="0 0 100 100" fill="none" xmlns="http://www.w3.org/2000/svg">
<circle cx="50" cy="50" r="49.5" fill="#00ABC5" stroke="#7DAFFC"/>
<path d="M68.5505 55.3457C68.8378 57.0958 70.3219 58.4422 72.152 58.4815C74.2129 58.5344 75.9251 56.8912 75.9734 54.8267C76.0249 52.7509 74.3931 51.0369 72.3304 50.9863C70.4601 50.938 68.8861 52.2812 68.5704 54.0675C66.6364 54.0174 58.0672 54.1443 52.4088 60.7457C52.3939 60.5641 52.3831 60.3789 52.3709 60.196C53.0493 56.3953 55.8387 48.1612 67.2579 46.7588C67.7913 48.0298 69.0044 48.9643 70.4764 49.0564C72.5382 49.1756 74.3032 47.5975 74.4243 45.524C74.5467 43.4581 72.9731 41.6813 70.9149 41.5598C68.8581 41.4383 67.0849 43.0137 66.9643 45.0886V45.1356C65.1518 45.2837 56.7036 46.3212 51.9884 52.3639C51.9689 51.9072 51.9495 51.4583 51.9355 51.0143C54.1735 42.0381 61.2364 38.784 63.3226 38.0098C63.8578 39.1679 64.977 40.0314 66.3482 40.1647C68.4037 40.3625 70.2325 38.8535 70.4289 36.7868C70.6277 34.7331 69.1268 32.9021 67.0664 32.6984C65.0113 32.5006 63.1894 34.0041 62.9893 36.0677C62.9735 36.2244 62.9681 36.3798 62.9735 36.542C58.4746 37.7352 54.85 40.5495 52.6125 42.6921C52.7115 41.5291 53.4937 34.4074 57.8847 30.684C58.4687 31.5399 59.409 32.1388 60.5142 32.2594C62.5638 32.5001 64.421 31.0237 64.655 28.9655C64.8908 26.9059 63.4188 25.0474 61.3633 24.8161C59.3192 24.5754 57.4642 26.05 57.2293 28.1118C57.181 28.5079 57.2032 28.895 57.2745 29.2654C55.6829 30.3331 53.1477 32.4531 51.4861 35.8396C50.7486 30.1547 52.1311 26.298 53.0163 24.5131C53.4481 24.756 53.9463 24.9236 54.4716 24.9719C56.5203 25.1996 58.3662 23.7001 58.5771 21.641C58.8002 19.5801 57.307 17.7382 55.2565 17.5219C53.201 17.2997 51.3615 18.7933 51.1465 20.8501C51.0417 21.8406 51.3289 22.7728 51.8818 23.5005C51.1248 24.5907 50.5638 25.8337 50.1501 27.1232C49.736 25.8337 49.1795 24.5907 48.4194 23.5005C48.9745 22.7728 49.2631 21.8406 49.1624 20.8501C48.9433 18.7933 47.0988 17.2997 45.0491 17.5219C42.9959 17.7382 41.5068 19.5801 41.7263 21.641C41.9404 23.7001 43.7863 25.1996 45.8382 24.9719C46.3666 24.9241 46.854 24.756 47.2893 24.5131C48.1579 26.2623 49.4984 29.9867 48.8647 35.4896H48.8146C48.8146 35.4896 48.8123 35.6359 48.8051 35.9209C48.7943 36.0582 48.7726 36.2014 48.7504 36.3383C47.0969 32.6528 44.3938 30.3828 42.734 29.2658C42.8035 28.8959 42.8229 28.5084 42.7773 28.1123C42.5447 26.0509 40.6871 24.5758 38.6384 24.8166C36.5851 25.0478 35.1159 26.9064 35.3463 28.9659C35.5847 31.0241 37.437 32.5006 39.4857 32.2598C40.5981 32.1388 41.5366 31.5399 42.1247 30.6845C46.5039 34.4079 47.2939 41.5296 47.3941 42.6926C45.1548 40.5499 41.5366 37.7352 37.0332 36.5424C37.0386 36.3807 37.0332 36.2249 37.0224 36.0682C36.8191 34.0046 34.9908 32.501 32.9376 32.6988C30.8799 32.9025 29.3786 34.7335 29.5777 36.7872C29.7742 38.854 31.6039 40.3634 33.6557 40.1651C35.0251 40.0319 36.1398 39.1688 36.6836 38.0103C38.8217 38.8029 46.2054 42.2161 48.246 51.7374C48.2279 52.0287 48.217 52.3209 48.2039 52.6181C43.5311 46.3596 34.877 45.2846 33.0442 45.1365V45.0895C32.92 43.0142 31.1495 41.4392 29.0909 41.5607C27.0291 41.6827 25.4573 43.459 25.5779 45.5249C25.6962 47.5985 27.4694 49.1765 29.5335 49.0573C30.9919 48.9652 32.2136 48.0311 32.7479 46.7597C44.952 48.2619 47.3002 57.5651 47.7433 60.9191C42.0782 54.1515 33.3766 54.0183 31.4395 54.0684C31.1201 52.2821 29.5434 50.9384 27.674 50.9872C25.6068 51.0378 23.9777 52.7518 24.0265 54.8276C24.0734 56.8921 25.7906 58.5353 27.8515 58.4824C29.6762 58.4431 31.1621 57.0967 31.4512 55.3466C34.6954 55.6311 37.2929 56.4021 39.3574 57.4355C36.2374 57.8099 34.0098 59.5677 32.9037 60.654C32.2831 60.2669 31.5393 60.0447 30.7525 60.0826C28.688 60.1766 27.0864 61.9231 27.1776 63.9944C27.2707 66.0603 29.0132 67.6681 31.0772 67.5819C33.1413 67.4821 34.7374 65.7409 34.6516 63.662C34.615 62.9041 34.3558 62.2045 33.9421 61.6277C38.2256 58.2132 42.0709 59.635 43.3907 60.3044C44.9913 61.896 45.9651 63.5902 46.5532 64.97C44.2529 63.6105 41.9373 64.97 40.7562 65.9144C40.2454 65.6515 39.6708 65.4984 39.0543 65.4984C36.9876 65.4984 35.316 67.1749 35.316 69.2467C35.316 71.3202 36.9876 73.0035 39.0543 73.0035C41.1184 73.0035 42.79 71.3198 42.79 69.2467C42.79 68.4445 42.5357 67.6939 42.0998 67.0787C45.6128 65.0409 46.9244 68.3655 47.236 69.4129C46.7943 75.1349 46.2686 79.7183 45.6399 81.2223C45.6399 81.2223 47.4221 82.6043 50.1032 82.4937C52.7882 82.6039 54.5718 81.2223 54.5718 81.2223C53.9309 79.6718 53.3853 74.877 52.9355 68.9287C53.4445 67.6221 54.836 65.2965 57.9041 67.0783C57.4778 67.6934 57.2172 68.4436 57.2172 69.2462C57.2172 71.3198 58.8919 73.0031 60.9564 73.0031C63.0214 73.0031 64.6938 71.3193 64.6938 69.2462C64.6938 67.1745 63.0214 65.4979 60.9564 65.4979C60.3363 65.4979 59.7631 65.6511 59.2487 65.9139C58.0708 64.9695 55.7552 63.61 53.4589 64.9695C54.0461 63.5897 55.0176 61.8956 56.6174 60.3071C57.9321 59.6346 61.7856 58.2055 66.0673 61.6273C65.6545 62.204 65.393 62.9037 65.3578 63.6615C65.2711 65.7405 66.8713 67.4816 68.9317 67.5814C70.9908 67.6672 72.7405 66.0598 72.8354 63.9939C72.9194 61.9227 71.3178 60.1761 69.2601 60.0822C68.4697 60.0442 67.7271 60.266 67.1075 60.6535C66.0009 59.5673 63.7657 57.8094 60.6506 57.435C62.7115 56.4012 65.3081 55.6302 68.5505 55.3457ZM72.2749 53.2103C73.1122 53.2346 73.7734 53.9284 73.7572 54.7703C73.7378 55.6131 73.0395 56.2743 72.1999 56.2567C71.3711 56.2386 70.7067 55.5394 70.723 54.7016C70.7415 53.8593 71.4348 53.1976 72.2749 53.2103ZM70.7848 43.7851C71.6213 43.8375 72.2604 44.5534 72.2098 45.3944C72.1606 46.2372 71.4402 46.8704 70.6028 46.8239C69.7718 46.7764 69.1309 46.0506 69.1788 45.2178C69.2343 44.3759 69.9434 43.7368 70.7848 43.7851ZM66.8577 34.9147C67.6865 35.0041 68.3007 35.7416 68.2149 36.5754C68.1332 37.4132 67.3952 38.0297 66.5641 37.9439C65.7286 37.8608 65.1243 37.1165 65.1961 36.2809C65.2774 35.4431 66.0203 34.8361 66.8577 34.9147ZM59.4352 28.3688C59.5301 27.5279 60.2825 26.9344 61.1113 27.0243C61.9487 27.1232 62.5422 27.8716 62.4482 28.7103C62.3529 29.5436 61.6036 30.1461 60.7694 30.0454C59.9361 29.9501 59.3399 29.1981 59.4352 28.3688ZM53.3555 21.0891C53.4404 20.2517 54.1911 19.6456 55.0176 19.7319C55.855 19.8231 56.4611 20.5764 56.3694 21.4106C56.2786 22.2435 55.5374 22.8487 54.7037 22.7634C53.8659 22.6735 53.2643 21.9179 53.3555 21.0891ZM45.6029 22.7634C44.7678 22.8483 44.0261 22.2435 43.9304 21.4106C43.8446 20.5764 44.4484 19.8231 45.2786 19.7319C46.1137 19.6456 46.8576 20.2513 46.9497 21.0891C47.0364 21.9179 46.4344 22.6735 45.6029 22.7634ZM39.2327 30.0458C38.4017 30.1465 37.6501 29.544 37.5571 28.7107C37.46 27.872 38.0526 27.1232 38.894 27.0247C39.7165 26.9348 40.4734 27.5279 40.5701 28.3693C40.6591 29.1981 40.0615 29.9501 39.2327 30.0458ZM33.4376 37.9439C32.6065 38.0293 31.8672 37.4132 31.7805 36.5754C31.7037 35.7416 32.3134 35.0041 33.1476 34.9147C33.9841 34.8361 34.7198 35.4431 34.8052 36.2809C34.8847 37.1165 34.2745 37.8608 33.4376 37.9439ZM29.4016 46.8243C28.5579 46.8708 27.8384 46.2376 27.7914 45.3948C27.7472 44.5539 28.3858 43.838 29.2191 43.7856C30.0565 43.7373 30.766 44.3764 30.822 45.2187C30.8681 46.0511 30.2295 46.7764 29.4016 46.8243ZM27.7987 56.2571C26.9613 56.2747 26.2608 55.6135 26.2463 54.7707C26.2269 53.9288 26.8904 53.2351 27.7264 53.2107C28.5606 53.1981 29.2602 53.8597 29.2778 54.7021C29.2959 55.5399 28.6351 56.2386 27.7987 56.2571ZM39.0512 70.7746C38.212 70.7746 37.5363 70.0913 37.5363 69.2462C37.5363 68.4066 38.2116 67.7309 39.0512 67.7309C39.8885 67.7309 40.5701 68.4066 40.5701 69.2462C40.5701 70.0913 39.8881 70.7746 39.0512 70.7746ZM62.4694 69.2462C62.4694 70.0913 61.7856 70.7746 60.9528 70.7746C60.1127 70.7746 59.4352 70.0913 59.4352 69.2462C59.4352 68.4066 60.1127 67.7309 60.9528 67.7309C61.7861 67.7309 62.4694 68.4066 62.4694 69.2462ZM51.6433 43.6447L51.7183 43.586L51.6433 43.6623V43.6447ZM48.2794 43.586L48.5517 43.7996V43.8457L48.2794 43.586ZM30.9806 65.3471C30.1405 65.3837 29.4278 64.7347 29.4016 63.8964C29.3641 63.0504 30.0113 62.345 30.8482 62.3039C31.6838 62.2722 32.3897 62.9249 32.4286 63.7613C32.4629 64.6041 31.8116 65.3137 30.9806 65.3471ZM69.1503 62.3039C69.9931 62.3454 70.639 63.0504 70.6028 63.8964C70.5735 64.7342 69.858 65.3837 69.0211 65.3471C68.1937 65.3137 67.5411 64.6037 67.5691 63.7609C67.6079 62.9249 68.3206 62.2722 69.1503 62.3039Z" fill="white"/>
</svg>
