<svg width="100" height="100" viewBox="0 0 100 100" fill="none" xmlns="http://www.w3.org/2000/svg">
<circle cx="50" cy="50" r="49.5" fill="white" stroke="#7DAFFC"/>
<path d="M23.5607 76H76.4393V24H23.5607V76Z" fill="url(#paint0_linear)"/>
<path d="M27.6914 24.9319C26.6659 24.9319 25.9955 25.7972 25.8362 27.0106C25.6774 28.2245 24.5158 33.9523 24.5158 48.6915C24.5158 63.4384 25.8362 73.0864 25.8362 73.0864C25.9584 74.2527 26.6659 75.1642 27.6914 75.1642H73.461C74.4833 75.1642 75.2968 74.3535 75.3144 73.0864C75.3315 71.8198 74.8056 61.7852 74.8056 50.7479C74.8056 39.7097 75.3144 27.0106 75.3144 27.0106C75.3391 25.8814 74.4833 24.9319 73.461 24.9319H27.6914V24.9319Z" fill="url(#paint1_linear)"/>
<path d="M53.3963 30.2361C54.8402 30.8414 60.6422 33.9794 61.3535 34.9817C58.4337 35.3673 52.7078 36.8583 49.6235 38.3588L49.4433 38.7221C52.8442 37.9732 57.5984 37.5819 60.8762 37.4036C59.6528 39.1995 58.8417 40.0553 56.9798 42.0869L56.8072 42.4815C60.3551 40.3501 61.3535 40.197 64.6242 38.2818C65.859 40.1085 66.1562 44.3178 66.2032 47.6545C67.2678 45.5378 68.5596 37.5643 68.0228 36.1232C70.1914 34.635 70.4847 33.4359 70.4847 33.4359C68.4964 33.6076 67.3999 33.6409 66.3278 33.9799C63.7869 32.4213 57.9616 30.3654 53.5641 29.8686L53.3963 30.2361Z" fill="url(#paint2_linear)"/>
<path d="M31.7342 55.0142C31.4466 57.671 31.331 59.5705 31.7114 61.6958C30.6359 61.993 29.6931 62.0353 28.8268 62.4047L28.6613 62.7689C30.0407 63.6195 31.1632 64.2709 32.7227 64.9993C33.5571 66.7913 34.4187 67.999 35.8165 69.3797L35.9872 69.0103C35.7357 67.9918 35.41 67.1503 35.5331 66.0372C37.2662 66.5426 38.7534 66.8098 40.7299 66.8693L40.8963 66.4998C39.1595 65.8261 37.4231 65.295 36.0181 63.9695C36.4598 62.7409 36.9657 61.7771 37.7916 60.558L37.9656 60.1853C36.4736 60.4102 35.1205 60.9565 33.8296 61.2075C32.8126 59.4193 32.417 56.9735 31.9049 54.6433L31.7342 55.0142Z" fill="url(#paint3_linear)"/>
<path d="M40.5883 42.8914C40.5883 42.8914 39.4719 42.7844 37.6238 42.8401C36.0619 42.9123 33.7326 43.0516 32.6001 43.3845L32.4346 43.7477C34.2352 43.8247 36.7028 44.3087 37.6466 45.2563C38.5899 46.2035 34.9132 47.7221 32.2035 53.1185C29.4939 58.5159 37.115 48.5104 39.2441 47.3679C41.3732 46.2253 40.3586 51.0788 41.1317 52.936L41.3024 52.5651C41.5164 51.3722 42.0498 48.1338 42.9551 46.1526C43.8604 44.1718 43.2756 45.9581 44.846 45.805C46.4207 45.6648 48.6463 45.5816 52.8732 46.3237L53.0448 45.9605C52.0796 45.3909 48.2336 43.742 44.1623 43.1938H44.2954C44.8536 41.5497 45.5525 40.3097 45.5525 40.3097C44.6891 40.4319 42.2319 41.581 40.5883 42.8914Z" fill="url(#paint4_linear)"/>
<path d="M50.8768 65.6588C50.8136 64.9456 50.766 64.231 50.7337 63.5154C49.9435 64.5985 49.1 65.6431 48.2066 66.6439C47.2105 66.9211 46.0713 66.9097 45.0334 66.8988C44.643 66.8911 44.2527 66.8921 43.8619 66.9016L43.6945 67.271C44.6606 67.7679 45.6092 68.0741 46.6214 68.2814C45.8008 69.0288 44.7039 69.597 43.9327 70.1186L43.7639 70.4809C45.4152 70.091 47.5904 69.3897 49.2103 68.4335C50.0533 68.4706 50.8407 68.415 51.4188 68.3004C51.997 68.1858 51.5919 67.9229 51.5919 67.9319C51.4859 67.5592 51.154 67.3314 51.057 66.8094C52.5756 65.6302 53.6758 64.5562 54.9453 63.2791L55.1222 62.9082C53.8674 63.774 52.3441 64.9641 50.8768 65.6588Z" fill="url(#paint5_linear)"/>
<path d="M64.7915 37.9091C61.5289 39.828 60.529 39.9892 56.9797 42.1131C59.0466 39.8708 59.7655 38.9166 61.044 37.04C57.7723 37.214 53.0182 37.6067 49.6234 38.3594C52.5779 36.7813 58.4361 35.0269 61.5289 34.6089C60.8115 33.6186 55.008 30.4753 53.564 29.8691C58.1589 30.2266 63.7745 31.943 66.4975 33.609C67.5682 33.2738 68.6822 33.2586 70.6758 33.0803C70.1685 33.9523 70.1457 34.4568 68.1901 35.7538C68.7321 37.2026 67.4375 45.1722 66.3681 47.2823C66.3296 43.9489 66.0387 39.7377 64.7915 37.9091ZM40.8964 66.4994C39.0212 65.8038 37.6709 64.995 36.1836 63.6043C36.6287 62.3757 37.1369 61.4158 37.9657 60.1848C36.6405 60.3736 35.3197 60.5899 34.0036 60.8324C32.9343 58.9624 32.4494 57.1557 31.9045 54.6424C31.6135 57.3059 31.5027 59.2082 31.8783 61.3288C30.6721 61.6645 29.8191 61.9564 28.8269 62.4028C30.2166 63.2534 31.3387 63.9086 32.8915 64.6323C33.7246 66.4233 34.588 67.6305 35.9877 69.0093C35.6592 67.835 35.5727 66.9002 35.7067 65.6683C37.4417 66.1732 38.927 66.4395 40.8964 66.4994ZM45.7784 39.994C45.1941 40.7523 44.516 42.1649 44.3335 42.8215C49.167 43.4781 53.0453 45.9605 53.0453 45.9605C48.8175 45.2107 46.5919 45.3039 45.0148 45.4456C43.4482 45.5925 43.1244 45.776 43.1244 45.776C41.9857 48.276 41.3015 52.5656 41.3015 52.5656C40.5331 50.7123 39.421 46.9989 39.421 46.9989C37.2886 48.1376 32.3828 52.7529 32.3828 52.7529C35.0801 47.3522 37.8173 44.8936 37.8173 44.8936C36.8759 43.9398 34.4064 43.4634 32.5996 43.384C33.5372 43.0008 35.943 42.5534 37.7912 42.4688C39.6412 42.4155 40.7604 42.5206 40.7604 42.5206C42.4107 41.2173 44.914 40.1209 45.7779 39.9926L45.7784 39.994ZM50.9057 63.1507C50.1146 64.2348 49.2692 65.2775 48.373 66.2759C46.9086 66.7038 45.3885 66.9149 43.8623 66.9016C44.788 67.3742 45.7751 67.7156 46.7945 67.9172C45.9082 68.7336 44.9511 69.4705 43.9346 70.1186C45.5873 69.7263 47.7596 69.025 49.3776 68.0689C50.223 68.1017 51.0127 68.0465 51.5909 67.9324C51.4406 67.4427 51.3489 67.0776 51.2253 66.4404C52.7486 65.2599 53.8541 64.1915 55.1226 62.9087C53.8384 63.823 52.4743 64.6204 51.0479 65.2898C50.9813 64.5776 50.9343 63.8644 50.9057 63.1507Z" fill="white"/>
<defs>
<linearGradient id="paint0_linear" x1="49.968" y1="22.6881" x2="49.968" y2="92.4637" gradientUnits="userSpaceOnUse">
<stop stop-color="#007348"/>
<stop offset="0.6" stop-color="#8DC9AB"/>
<stop offset="1" stop-color="#00925B"/>
</linearGradient>
<linearGradient id="paint1_linear" x1="49.8659" y1="10.8551" x2="49.8659" y2="89.2637" gradientUnits="userSpaceOnUse">
<stop stop-color="#00925B"/>
<stop offset="0.3" stop-color="#8DC9AB"/>
<stop offset="0.55" stop-color="#00925B"/>
<stop offset="0.835" stop-color="#007348"/>
<stop offset="1" stop-color="#009C6D"/>
</linearGradient>
<linearGradient id="paint2_linear" x1="59.9743" y1="70.1442" x2="59.9743" y2="19.3488" gradientUnits="userSpaceOnUse">
<stop stop-color="#00A678"/>
<stop offset="1" stop-color="#00925B"/>
</linearGradient>
<linearGradient id="paint3_linear" x1="34.7676" y1="70.1495" x2="34.7676" y2="19.3235" gradientUnits="userSpaceOnUse">
<stop stop-color="#00A678"/>
<stop offset="1" stop-color="#00925B"/>
</linearGradient>
<linearGradient id="paint4_linear" x1="42.3514" y1="70.1477" x2="42.3514" y2="19.3551" gradientUnits="userSpaceOnUse">
<stop stop-color="#00A678"/>
<stop offset="1" stop-color="#00925B"/>
</linearGradient>
<linearGradient id="paint5_linear" x1="49.4175" y1="70.1156" x2="49.4175" y2="19.3765" gradientUnits="userSpaceOnUse">
<stop stop-color="#00A678"/>
<stop offset="1" stop-color="#00925B"/>
</linearGradient>
</defs>
</svg>
