<svg width="100" height="100" viewBox="0 0 100 100" fill="none" xmlns="http://www.w3.org/2000/svg">
<circle cx="50" cy="50" r="49.5" fill="#056DAE" stroke="#7DAFFC"/>
<path fill-rule="evenodd" clip-rule="evenodd" d="M42.6267 46.1034C40.7414 43.434 37.612 41.841 34.4294 41.841C31.245 41.841 28.1142 43.4339 26.2332 46.1034L26.1369 46.2403H28.5096L28.5356 46.2119C30.1518 44.5447 32.26 43.6637 34.4293 43.6637C36.597 43.6637 38.7049 44.5448 40.3229 46.2119L40.3501 46.2403H42.7216L42.6267 46.1034Z" fill="#E31F2B"/>
<path d="M25.1963 54.9832L25.1507 55.0274C24.4214 55.7696 23.5787 56.1637 22.71 56.1637C20.8955 56.1637 19.5794 54.8017 19.5794 52.9244C19.5794 51.05 20.8955 49.6873 22.71 49.6873C23.5787 49.6873 24.4214 50.0826 25.1507 50.8263L25.1963 50.8719L26.3623 49.461L26.3311 49.4225C25.3606 48.276 24.1968 47.7188 22.766 47.7188C21.3298 47.7188 20.0175 48.2015 19.0718 49.0737C18.0426 50.0168 17.5 51.3478 17.5 52.9243C17.5 54.4993 18.0426 55.8347 19.0718 56.7783C20.0175 57.6537 21.3298 58.1337 22.766 58.1337C24.1968 58.1337 25.3606 57.5769 26.3311 56.4295L26.3623 56.3941L25.1963 54.9832ZM27.5417 57.9422H29.6016V47.8821H27.5417V57.9422ZM37.6749 55.7544C37.1257 56.0901 36.6132 56.2579 36.1538 56.2579C35.4874 56.2579 35.1872 55.9072 35.1872 55.1245V49.7861H37.2862V47.8911H35.1872V44.7615L33.1667 45.8413V47.8913H31.4252V49.7862H33.1667V55.4644C33.1667 57.0115 34.0837 58.0679 35.452 58.0962C36.381 58.1142 36.9407 57.8373 37.2811 57.6349L37.3007 57.6213L37.7965 55.6801L37.6749 55.7544ZM39.382 57.9422H41.4432V47.8821H39.382V57.9422ZM74.3133 44.0536V53.6505L74.9549 52.6519C74.9537 52.6564 77.8392 48.4782 78.2082 47.9467H79.4946C79.2204 48.3138 76.9521 51.4348 76.9521 51.4348C76.9521 51.4348 79.9066 57.5924 80.0777 57.9421H78.8148C78.7457 57.7992 76.2071 52.4251 76.2071 52.4251L74.3131 55.0808V57.9421H73.1365V44.726C73.2396 44.6668 74.0356 44.21 74.3133 44.0536ZM64.6511 49.1377C65.2564 48.2304 66.2075 47.7308 67.32 47.7308C69.5376 47.7308 70.7125 49.1457 70.7125 51.8217V57.9422H69.5336V52.0746C69.5336 49.7984 68.7432 48.7406 67.03 48.7406C65.3905 48.7406 64.4122 49.9875 64.4122 52.0746V57.9421H63.2356V47.9467H64.4122V49.4963L64.6511 49.1377ZM57.4217 47.7307C59.7034 47.7307 60.8121 48.7739 60.8121 50.9216V57.9421H59.6367V56.4843L59.407 56.7368C58.5411 57.6915 57.5482 58.1586 56.3652 58.1586C55.438 58.1586 53.2802 57.8519 53.2802 55.0056C53.2802 52.6798 55.2002 51.8536 56.9993 51.8536C57.9031 51.8536 58.7956 52.0617 59.4426 52.4251L59.6369 52.5327V51.0972C59.6369 49.5061 58.8593 48.7001 57.324 48.7001C56.377 48.7001 55.5213 48.9388 54.646 49.4333C54.5691 49.2549 54.2963 48.6542 54.2207 48.4836C55.1363 48.0004 56.2673 47.7307 57.4217 47.7307ZM54.4331 54.9088C54.4331 56.4028 55.208 57.2261 56.6157 57.2261C57.8118 57.2261 58.8761 56.6598 59.6144 55.6313L59.6367 55.5954V53.4052L59.57 53.3669C58.82 52.9388 58.0516 52.766 56.9207 52.766C55.3659 52.766 54.4331 53.567 54.4331 54.9088ZM45.3516 44.0536V49.4019L45.5784 49.1528C46.4446 48.1958 47.4047 47.7308 48.5071 47.7308C50.7128 47.7308 51.9781 49.5687 51.9781 52.7774C51.9781 56.0456 50.5405 58.1589 48.3138 58.1589C47.2284 58.1589 46.3598 57.7382 45.5798 56.8362L45.3516 56.5687V57.9422H44.1773V44.7262C44.2765 44.6668 45.0749 44.21 45.3516 44.0536ZM45.3789 50.2726L45.3516 50.3091V55.5142L45.3725 55.5452C46.0207 56.5498 47.0786 57.1505 48.2031 57.1505C49.9407 57.1505 50.8211 55.6849 50.8211 52.7987C50.8211 50.2186 49.8455 48.7408 48.1445 48.7408C47.1138 48.7406 46.1824 49.2558 45.3789 50.2726ZM81.7097 46.5726C81.7097 46.6892 81.6301 46.7392 81.5217 46.7392H81.2099V46.4053H81.5217C81.6301 46.4053 81.7097 46.4617 81.7097 46.5726ZM81.913 46.5667C81.913 46.3208 81.7367 46.211 81.5283 46.211H81.0102V47.3892H81.2101V46.9345H81.4369L81.6677 47.3892H81.9049L81.6624 46.9136C81.8151 46.8687 81.913 46.7517 81.913 46.5667ZM82.5 46.8208C82.5 46.2086 82.0344 45.7413 81.4214 45.7413C80.8081 45.7413 80.3414 46.2086 80.3414 46.8208C80.3414 47.4342 80.8081 47.8998 81.4214 47.8998C82.0342 47.9 82.5 47.4342 82.5 46.8208ZM82.3264 46.8208C82.3264 47.335 81.9338 47.7263 81.4213 47.7263C80.9059 47.7263 80.5146 47.335 80.5146 46.8208C80.5146 46.3065 80.9059 45.915 81.4213 45.915C81.9339 45.915 82.3264 46.3065 82.3264 46.8208Z" fill="white"/>
</svg>
