<svg width="100" height="100" viewBox="0 0 100 100" fill="none" xmlns="http://www.w3.org/2000/svg">
<circle cx="50" cy="50" r="49.5" fill="white" stroke="#7DAFFC"/>
<path fill-rule="evenodd" clip-rule="evenodd" d="M29.3583 69.5956L29.3774 69.5664L29.4239 69.5956C33.3892 63.475 37.8447 58.4655 42.7374 54.4501C40.693 53.0784 38.7166 51.5809 36.8106 49.9511C31.7581 54.2491 27.2012 59.4722 23.1924 65.7257L29.3583 69.5956ZM49.0267 49.9695C50.7646 48.9044 52.5483 47.9431 54.3762 47.0807C51.9728 45.7991 49.6464 44.3207 47.4064 42.6395C45.8105 43.5186 44.251 44.4656 42.7284 45.4824C44.7543 47.1451 46.8541 48.639 49.0267 49.9695ZM64.0142 43.5418C68.0618 42.4385 72.2799 41.7229 76.6538 41.3615C71.1295 40.6256 65.9208 39.2253 61.1254 36.9477C58.9367 37.5978 56.7981 38.342 54.7102 39.1817C57.6163 40.9369 60.7276 42.3843 64.0142 43.5418ZM76.6544 41.2195L76.6174 33.9152L76.6114 33.9158L76.6544 41.2195ZM49.4919 82.5C57.0223 72.234 66.3102 67.8983 76.652 66.0877C71.2607 65.5122 66.095 64.5127 61.1784 63.0456C54.3512 66.2851 48.3618 71.3007 43.5037 78.7148L49.4919 82.5ZM76.6532 66.0883L76.6955 58.6384L76.6532 58.6444V66.0883ZM39.3923 75.9864C43.4089 69.4513 48.58 64.4304 54.6458 60.7568C52.144 59.7405 49.7173 58.5866 47.37 57.2841C42.2185 61.151 37.5149 66.0877 33.3379 72.16L39.3923 75.9864ZM63.9599 56.3806C67.9884 54.96 72.2811 53.9748 76.7873 53.3909V53.3796C71.1808 52.9806 65.8135 51.8523 60.7359 49.9517C58.5478 50.7693 56.4134 51.7306 54.3374 52.8393C57.4231 54.2974 60.6334 55.4699 63.9599 56.3806Z" fill="#C7203B"/>
<path fill-rule="evenodd" clip-rule="evenodd" d="M49.4508 17.5C56.9818 27.766 66.2691 32.1016 76.6114 33.9116L76.655 41.3615C63.2735 39.579 51.7301 33.9021 43.462 21.2846L49.4508 17.5ZM39.4144 23.9241C47.7141 37.429 60.9423 44.4668 76.8076 46.5196V53.3814C59.5593 52.1583 44.5629 44.0404 33.3594 27.7511L39.4144 23.9241ZM29.4239 30.3447C41.2673 48.6248 57.4684 56.9913 76.6526 58.5747V66.0884C54.4508 63.7166 36.0652 54.1919 23.2586 34.2146L29.4239 30.3447Z" fill="#263D88"/>
</svg>
