<svg width="100" height="100" viewBox="0 0 100 100" fill="none" xmlns="http://www.w3.org/2000/svg">
<circle cx="50" cy="50" r="49.5" fill="white" stroke="#7DAFFC"/>
<path fill-rule="evenodd" clip-rule="evenodd" d="M17.5 50.0002C17.5 32.0876 32.0507 17.5639 49.9981 17.5639C67.9488 17.5639 82.5 32.0871 82.5 50.0002C82.5 67.9134 67.9488 82.4361 49.9981 82.4361C32.0507 82.4361 17.5 67.9134 17.5 50.0002ZM77.4646 49.9988C77.4646 65.1379 65.1685 77.4079 50 77.4079C34.8334 77.4079 22.5374 65.1379 22.5378 49.9988C22.5378 34.8592 34.8334 22.5892 50 22.5892C65.1685 22.5892 77.4646 34.8592 77.4646 49.9988ZM37.5819 37.5084H48.8189L48.8184 32.5289H32.5855V47.4823H42.5363V52.47H32.5855V67.4268H48.8184V62.441H37.5814V57.4533H47.5578V42.4951H37.5819V37.5084ZM51.3296 62.4545V67.4364H67.5263V52.4815H57.5775V47.4958H67.5263V32.538H51.3296V37.5238H62.53V42.5091H52.5536V57.4692H62.53V62.455L51.3296 62.4545Z" fill="#AB1416"/>
</svg>
