<svg width="100" height="100" viewBox="0 0 100 100" fill="none" xmlns="http://www.w3.org/2000/svg">
<circle cx="50" cy="50" r="49.5" fill="white" stroke="#7DAFFC"/>
<path fill-rule="evenodd" clip-rule="evenodd" d="M70.6596 24H29.3404C26.3944 24 23.9985 26.3918 23.9985 29.3404V70.6592C23.9985 73.612 26.3944 76 29.3404 76H70.6596C73.6109 76 76.0015 73.612 76.0015 70.6592V29.3404C76.0019 26.3914 73.6109 24 70.6596 24ZM64.3086 32.7926C64.3086 32.7926 67.1211 33.6169 67.1211 36.5176V51.5876L64.4585 54.3197V37.1867C64.4585 37.1867 64.309 35.7494 63.2429 35.5274C62.1735 35.3001 61.7231 35.5274 61.7231 35.5274L59.2215 32.7926H64.3086V32.7926ZM47.5867 27.79C47.5867 27.79 50.1514 26.3828 52.2088 28.4335L62.8639 39.0912L62.9111 42.9114L50.7953 30.7929C50.7953 30.7929 49.6727 29.8794 48.7595 30.4753C47.8508 31.076 47.6901 31.5503 47.6901 31.5503L43.9864 31.3896L47.5867 27.79ZM42.0298 41.13H45.3411V41.4785H42.1351C42.1351 41.4785 41.7479 42.2783 41.7233 43.1844C41.6805 44.4807 42.0525 44.8936 42.0525 44.8936H45.382L45.3638 45.3042H42.0108C42.0108 45.3042 41.8438 45.267 41.7233 44.9341V45.2444H41.1973V41.1531H41.6805L41.6571 41.5589C41.6571 41.5589 41.8736 41.1337 42.0298 41.13ZM45.3497 42.7034V43.1141H42.6454V44.6526H42.2575V42.0577C42.2575 42.0577 42.3512 41.7832 42.5904 41.7832H45.3497V42.2005H42.6454V42.7034H45.3497ZM43.3258 44.2538V44.6663H42.9843V43.2238H43.3477V43.9138H44.9598V43.2134H45.3411V44.6659H44.9509V44.2534H43.3258V44.2538ZM47.0447 46.3179V41.2821H50.2864V49.3807H41.197V46.3179H47.0447V46.3179ZM51.6363 50.8187V41.2821H54.9681V54.0571H41.1973V50.8191H51.6363V50.8187ZM56.1383 55.5011V41.2821H59.556V58.5583H41.1973V55.5011H56.1383V55.5011ZM32.7659 35.5768C32.7659 35.5768 33.5861 32.7636 36.4901 32.7636H51.5627L54.2907 35.4266H37.1618C37.1618 35.4266 35.7204 35.5768 35.4987 36.6429C35.2756 37.7108 35.4987 38.1561 35.4987 38.1561L32.7655 40.6624V35.5768H32.7659ZM31.3669 55.3575L27.7662 51.7591C27.7662 51.7591 26.3561 49.1891 28.4097 47.1373L39.0641 36.4774L42.8835 36.4324L30.7669 48.5471C30.7669 48.5471 29.8515 49.6727 30.45 50.5818C31.0477 51.495 31.5217 51.6582 31.5217 51.6582L31.3669 55.3575ZM35.5494 66.8484C35.5494 66.8484 32.7369 66.0256 32.7369 63.1194V48.0498L35.4002 45.321V62.4521C35.4002 62.4521 35.549 63.8916 36.6158 64.1148C37.683 64.338 38.129 64.1148 38.129 64.1148L40.6375 66.8488H35.5494V66.8484ZM52.2742 72.2078C52.2742 72.2078 49.7039 73.619 47.6522 71.5628L36.9952 60.9073L36.9457 57.0957L49.063 69.2052C49.063 69.2052 50.1834 70.1195 51.1014 69.5218C52.0087 68.9288 52.1679 68.4523 52.1679 68.4523L55.8708 68.6086L52.2742 72.2078ZM67.0701 64.0601C67.0701 64.0601 66.2477 66.8733 63.3482 66.8733H48.2733L45.5468 64.2119H62.6719C62.6719 64.2119 64.1193 64.0601 64.3421 62.9926C64.5638 61.928 64.3421 61.4824 64.3421 61.4824L67.0701 58.9716V64.0601V64.0601ZM71.5948 52.205L60.9386 62.8624L57.1221 62.9096L69.235 50.7942C69.235 50.7942 70.1482 49.673 69.5519 48.7606C68.9534 47.847 68.4855 47.6886 68.4855 47.6886L68.638 43.9845L72.2379 47.5837C72.2376 47.5837 73.6458 50.1499 71.5948 52.205Z" fill="#00A260"/>
</svg>
