<svg width="100" height="100" viewBox="0 0 100 100" fill="none" xmlns="http://www.w3.org/2000/svg">
<circle cx="50" cy="50" r="49.5" fill="#FABC19" stroke="#7DAFFC"/>
<path d="M79.7832 50.0003C79.7832 66.4489 66.4485 79.7836 49.9999 79.7836C33.5513 79.7836 20.2166 66.4496 20.2166 50.0003C20.2166 33.5509 33.5505 20.217 49.9999 20.217C66.4478 20.2177 79.7832 33.5516 79.7832 50.0003Z" fill="#FABC19"/>
<path d="M50 17.5003C32.08 17.5003 17.5 32.0803 17.5 50.0011C17.5 67.9219 32.0792 82.4996 50 82.4996C67.9208 82.4996 82.5 67.9219 82.5 50.0011C82.5 32.0803 67.92 17.5003 50 17.5003ZM50 20.2178C66.4479 20.2178 79.7833 33.5517 79.7833 50.0011C79.7833 66.4504 66.4486 79.7844 50 79.7844C33.5514 79.7844 20.2167 66.4504 20.2167 50.0011C20.2167 33.5517 33.5514 20.2178 50 20.2178Z" fill="black"/>
<path d="M36.0037 38.6195C36.0037 38.6195 36.6924 35.9116 37.7938 34.9938C38.8951 34.076 42.8564 31.4598 48.5784 29.6242C49.259 29.4047 50.0506 29.6558 50.0865 29.6675C50.0484 29.8929 50.0256 30.0464 50.0168 30.0978C49.9404 30.5266 49.6181 30.8019 49.6181 30.8019C50.7804 30.9554 51.5462 30.1294 51.7599 29.18C51.9743 28.2321 52.7078 24.4749 53.9017 24.5307C57.2359 24.6827 59.6222 35.4527 59.3777 35.9417C59.2176 36.2618 57.91 36.0034 57.91 36.0034C59.9901 39.2759 62.7127 39.2458 63.325 38.7252C63.9367 38.2061 63.6004 36.5225 63.6004 36.5225C70.1469 40.4088 69.7798 45.028 69.7798 45.028C71.7373 37.3801 67.2099 34.1061 67.2099 34.1061C68.9839 34.0444 70.912 35.1773 70.912 35.1773C68.1586 31.4745 62.4674 29.4252 62.4674 29.4252C62.4674 29.4252 55.8291 22.0527 53.6873 22.328C51.9141 22.5563 50.8994 25.8113 50.4023 28.0412C50.1578 28.0199 49.6923 28.0023 49.088 28.0727C48.618 27.4905 46.6312 25.1314 45.8558 25.9075C45.557 26.2056 45.4608 28.3283 45.4351 29.2233C42.2191 30.5024 36.7467 32.9078 35.6373 34.6729C34.6277 36.2794 34.3979 37.4726 34.3979 37.4726C34.3979 37.4726 27.8352 41.6945 26.2294 46.2836C26.2286 46.2836 30.6341 41.1438 36.0037 38.6195Z" fill="black"/>
<path d="M57.1135 35.2082C57.0217 31.8123 55.3388 29.089 54.4819 28.937C53.6251 28.7835 53.3505 32.026 53.3505 32.026C55.6141 33.526 57.1135 35.2082 57.1135 35.2082Z" fill="black"/>
<path d="M40.9901 34.5957C39.6743 35.3916 40.2558 36.0642 40.2558 36.0642C40.2558 36.0642 40.0422 35.3916 41.6634 34.9327C44.5556 34.114 47.171 33.2807 47.1093 32.5765C47.0476 31.8738 45.0901 31.5985 45.0901 31.5985C45.6408 32.3327 42.3066 33.8012 40.9901 34.5957Z" fill="black"/>
<path d="M42.3512 39.0932C42.7485 39.0932 43.0701 38.7716 43.0701 38.3744C43.0701 38.1578 42.9702 37.9698 42.8189 37.8391C43.2947 37.8075 44.3851 37.8692 44.3851 37.8692C44.2625 37.8376 43.9879 38.1445 43.3755 38.9089C42.7639 39.6747 42.1824 39.0924 42.1824 39.0924L42.1728 39.0565C42.2316 39.0726 42.2881 39.0932 42.3512 39.0932ZM40.042 42.3672C40.042 42.3672 40.8688 40.4398 41.4804 40.1946C41.4804 40.1946 42.5509 40.4699 43.1325 40.2562C43.7133 40.0426 44.8146 38.5741 45.2434 38.5425C45.2434 38.5425 44.1105 43.4686 39.5214 43.3768C39.5214 43.3768 42.8263 45.2425 44.5092 43.9275C46.1913 42.6124 44.9064 41.6028 47.0783 39.4919C49.2502 37.3809 47.8133 37.2877 47.7215 37.3192C47.629 37.3493 46.9557 37.1357 46.9557 37.1357C46.9557 37.1357 47.2619 36.7385 47.8735 36.4631C48.4859 36.1878 52.0037 34.5959 52.0653 33.648C52.127 32.7001 49.5256 31.6288 48.2105 31.6589C48.2105 31.6589 49.4029 32.1479 49.342 32.822C49.2811 33.4945 45.8543 34.9946 45.8543 36.922C45.8543 36.922 44.6303 37.0138 43.7434 36.8302C42.8571 36.6467 41.9085 36.7385 40.9297 37.3809C39.9502 38.0234 39.8886 36.585 39.9803 36.4014C39.9803 36.4014 38.0838 37.5946 40.4701 39.1248C40.4701 39.1248 39.4913 40.1343 39.3996 40.3781C39.3078 40.6234 38.9098 41.9384 40.042 42.3672Z" fill="black"/>
<path d="M37.0134 48.6698C37.0134 48.6698 36.9672 46.926 35.3614 47.2931C32.6586 47.9098 31.7357 52.7082 31.7357 52.7082C34.7644 47.1095 37.0134 48.6698 37.0134 48.6698Z" fill="black"/>
<path d="M38.0229 52.9373C39.4914 50.551 37.7013 49.0363 35.4067 50.3212C33.1122 51.6061 32.5615 54.6812 32.5615 54.6812C37.105 49.725 38.0229 52.9373 38.0229 52.9373Z" fill="black"/>
<path d="M32.149 48.4864C33.8011 45.8247 35.683 45.8702 35.683 45.8702C33.434 44.2182 32.149 48.4864 32.149 48.4864Z" fill="black"/>
<path d="M59.6833 49.863C59.6833 49.863 58.0312 48.3945 58.2148 45.6866C58.3983 42.9787 58.9035 38.8948 54.3137 36.0496C54.3137 36.0496 56.1956 38.9411 55.5069 41.7863C54.8181 44.6315 52.5192 49.49 52.7072 51.1024C53.1206 54.6364 56.7918 55.2788 56.5164 60.097C56.5164 60.097 58.6737 57.4808 58.2603 54.4065C57.8469 51.3322 55.1397 50.0011 56.3329 47.5685C56.3329 47.5685 57.7096 49.5877 59.6833 49.863Z" fill="black"/>
<path d="M38.8256 63.9973C38.4122 63.8592 38.0451 62.3452 38.0451 62.3452C38.642 62.8269 39.8579 62.8504 39.8579 62.8504C39.2845 63.4003 39.2389 64.1346 38.8256 63.9973ZM43.408 59.163C43.408 59.163 44.8449 59.2247 44.9066 58.9794C44.9683 58.7342 44.4477 57.052 44.4477 57.052C44.4477 57.052 46.2525 57.2356 46.2833 57.8164C46.3134 58.3986 45.2737 59.8671 43.071 60.815C43.071 60.815 43.4689 59.6535 43.408 59.163ZM34.072 57.6071C34.2696 57.4911 34.4553 57.3663 34.6271 57.2356C35.0721 56.8986 35.4091 56.7378 35.6353 56.6621C35.589 57.3061 35.5508 58.4434 35.7513 59.3855C35.7513 59.3855 34.5647 58.6233 34.072 57.6071ZM28.3251 51.7287C27.6209 51.7287 26.3669 49.863 26.1525 49.4959C25.9388 49.1288 27.3456 48.4547 27.7744 48.3328C28.2032 48.2095 28.6548 48.313 28.7223 48.5164C28.784 48.7 27.8353 49.2807 27.7135 49.4959C27.5908 49.7095 28.4631 50.5157 28.6004 50.689C28.8449 50.9945 29.0292 51.7287 28.3251 51.7287ZM72.8954 37.0577C72.8954 37.0577 76.9081 47.965 72.3799 57.8773C72.3799 57.8773 72.6377 56.4375 71.5231 53.5952C70.3299 50.551 70.7279 46.6184 71.2176 45.8841C71.2176 45.8841 69.0141 48.0883 69.1368 51.7596C69.2594 55.4308 70.2381 65.7705 62.773 69.6253C62.773 69.6253 65.6028 64.4554 64.5477 58.3979C64.5477 58.3979 65.5118 58.765 66.0162 60.0499C66.0162 60.0499 68.0354 54.7267 65.4193 48.2102C65.4193 48.2102 66.8878 48.4856 67.8056 49.2661C67.8056 49.2661 68.7704 44.6021 63.4919 41.3266C62.1607 40.5006 62.3442 40.0417 62.3442 40.0417C62.3442 40.0417 61.9309 41.0976 62.8032 42.1527C63.6754 43.2078 64.8686 45.2732 64.685 46.3291C64.685 46.3291 63.2621 45.3195 61.1973 45.5948C61.1973 45.5948 65.1439 48.9452 64.5477 56.1496C64.5477 56.1496 63.5381 55.0483 60.9683 54.5894C60.9683 54.5894 63.8597 60.0044 61.2899 65.1904C61.2899 65.1904 61.1063 63.3548 60.2803 62.2072C60.2803 62.2072 59.6378 66.0164 55.0488 67.3469C55.0488 67.3469 58.7663 62.7116 54.36 60.3716C49.9538 58.0315 46.2371 63.2168 45.5028 67.7603C45.5028 67.7603 40.4086 68.1274 39.9042 66.062C39.3997 63.9965 40.8682 63.125 40.8682 63.125C40.8682 63.125 41.6487 63.6301 43.4381 62.8034C45.2275 61.9766 48.9912 59.7284 48.6241 56.8831C48.257 54.0379 43.8052 51.2382 40.272 52.3859C36.7388 53.5335 34.7189 56.6541 32.8833 56.6078C31.0477 56.5615 28.7987 53.7626 29.1203 52.2941C29.4419 50.8256 30.635 50.4122 31.0477 47.9341C31.0477 47.9341 30.4045 47.9943 29.9764 47.719C29.5483 47.4437 28.4169 46.9862 27.8045 47.1382C27.1929 47.2917 25.6935 48.3013 25.6326 48.1177C25.5709 47.9341 25.7861 46.8328 25.7861 46.8328C25.7861 46.8328 24.1333 48.5766 24.3778 49.2793C24.623 49.9834 26.0614 51.7273 27.56 52.7067C27.56 52.7067 27.8361 54.8478 29.7936 56.8369C30.9632 58.0242 32.0529 58.2393 32.9846 58.0403C33.3774 58.624 34.7174 60.3796 36.8534 60.7607C36.8534 60.7607 36.4833 58.301 36.7506 56.4426C36.835 56.4007 36.9173 56.3523 36.9826 56.2862C37.3196 55.9492 41.2354 52.3396 44.1422 55.8273C44.1422 55.8273 42.8265 56.3163 42.3066 57.9684C41.786 59.6204 41.4806 63.7205 37.1662 61.0889C37.1662 61.0889 36.799 63.4451 38.1148 64.8519C38.1148 64.8519 37.9312 67.3616 40.7765 68.7383C43.6217 70.115 45.6107 69.0739 47.4464 69.9917C47.4464 69.9917 47.2628 66.2286 48.8231 63.9341C50.3826 61.6396 52.5861 60.8752 53.6566 61.763C54.7272 62.6492 55.4005 66.015 51.2703 69.5027C51.2703 69.5027 56.0121 70.115 59.2553 67.6369C59.2553 67.6369 58.8529 72.0079 55.5796 75.7107C67.4384 73.1651 76.2957 62.6191 76.2957 49.9988C76.2957 45.2952 75.0592 40.878 72.8954 37.0577Z" fill="black"/>
<path d="M53.8393 38.0835C53.8393 38.0835 50.7504 36.3411 49.3736 38.1452C48.0784 39.8435 48.9206 42.7555 48.1607 44.5742C48.1364 44.5529 48.1122 44.5294 48.0887 44.5082C46.3757 42.9794 44.264 45.5794 43.8668 46.3438C43.4688 47.1096 42.9483 47.2014 42.9483 47.2014C39.1852 47.9657 39.9804 44.937 38.7271 44.0191C37.473 43.1013 35.3613 44.4479 35.3613 44.4479C37.4722 44.0492 37.9612 45.5177 37.901 46.1C37.8401 46.6808 38.2674 48.3945 38.8489 49.3424C39.4297 50.2918 41.7859 49.6178 43.7133 49.7712C45.6407 49.9232 46.7421 52.2794 46.7421 52.2794C47.9044 49.4658 44.7846 48.1794 44.7846 48.1794C44.7846 48.1794 45.6958 46.4524 46.7722 47.0479C50.1997 48.9452 49.3421 56.6247 49.3421 56.6247C52.2945 51.0716 50.9941 47.8181 49.4537 45.9091C49.6497 44.1785 50.5249 38.726 53.8393 38.0835Z" fill="black"/>
</svg>
