<svg width="100" height="101" viewBox="0 0 100 101" fill="none" xmlns="http://www.w3.org/2000/svg">
<g clip-path="url(#clip0)">
<circle cx="50" cy="50.5" r="49.5" fill="#183181" stroke="#7DAFFC"/>
<path d="M27.1999 40.8573C26.66 42.2374 26.08 43.5974 25.5 44.9975L24.7001 46.8373L23.88 44.9975C23.2601 43.6173 22.6801 42.2374 22.14 40.8573H17.64V41.2173C18.14 41.2173 18.5401 41.6373 18.5401 42.1373C18.4602 43.0773 18.3799 44.0373 18.3002 44.9773L18 47.8774C17.86 49.2574 17.7001 50.6374 17.5 52.0173H18.9402C19.02 50.6374 19.1401 49.2574 19.2801 47.8774L19.72 43.5174C20.3601 44.8374 20.9601 46.1774 21.56 47.5173L21.72 47.8774C22.3201 49.2374 22.8999 50.6173 23.46 52.0173H23.8999C24.4399 50.6374 25.0199 49.2574 25.6199 47.8774L25.88 47.2773C26.46 45.9373 27.06 44.5974 27.6799 43.2774L28.14 47.8774C28.2801 49.2574 28.4001 50.6374 28.4801 52.0173H31.78C31.5801 50.6374 31.4201 49.2574 31.2801 47.8774L30.9801 44.9773C30.8399 43.5974 30.72 42.2173 30.64 40.8373H27.1999V40.8573V40.8573ZM41.9999 50.8972C42.36 50.1973 42.7599 49.4973 43.16 48.8373L47.1598 42.1574V41.8772H38.3399V43.9373H38.6799C38.6799 43.4372 39.0598 43.0373 39.5397 43.0174C39.8197 43.0174 40.0999 42.9973 40.3597 42.9973H43.1996C42.8396 43.6772 42.4597 44.3573 42.0596 45.0172L38.04 51.7373V52.0172H47.5601V50.8172C46.8801 50.8772 46.2199 50.8971 45.5399 50.8971H41.9999V50.8972ZM58.2998 52.0172C58.32 52.0172 58.3599 52.0172 58.3798 52.0172C58.3198 51.3374 58.2998 50.6373 58.2998 49.9572V47.4372H62.2398V49.9572C62.2398 50.6573 62.2199 51.3374 62.1599 52.0172H65.2C65.1399 51.3374 65.12 50.6373 65.12 49.9572V43.9572C65.12 43.2571 65.14 42.5773 65.2 41.8771H61.34V42.1972H61.4199C61.8599 42.1972 62.1999 42.5371 62.22 42.9771C62.22 43.2971 62.2399 43.6372 62.2399 43.9571V46.3373H58.2999V43.9574C58.2999 43.2573 58.3201 42.5775 58.38 41.8772H54.5201V42.1973H54.5998C55.02 42.1973 55.38 42.5373 55.4 42.9572C55.42 43.2773 55.42 43.6171 55.42 43.9372V50.9774C55.0201 51.0374 54.6 51.0573 54.2002 51.0573C53.7601 51.0573 53.3201 51.0173 52.8801 50.9574C51.6601 50.7173 51.4802 49.5773 51.4802 48.8773V43.9172C51.4802 43.2372 51.5201 42.5773 51.56 41.8973H47.7002V42.2172H47.7801C48.2201 42.2172 48.56 42.5572 48.5802 42.9773C48.6001 43.2972 48.6001 43.6373 48.6001 43.9572V48.3773C48.6001 49.3775 48.9202 51.5775 51.6202 51.9774C52.4601 52.0975 53.3201 52.1575 54.2002 52.1575C55.5799 52.1575 56.9399 52.0974 58.2998 52.0172ZM78.1799 46.9574C78.1799 50.4173 75.2 52.1575 72.26 52.1575C69.3199 52.1575 66.34 50.3974 66.34 46.9574C66.34 43.4973 69.3199 41.7574 72.26 41.7574C75.2 41.7372 78.1799 43.4972 78.1799 46.9574ZM75.2799 46.9574C75.2799 45.0773 74.5 42.8573 72.2399 42.8573C69.9999 42.8573 69.2 45.0775 69.2 46.9574C69.2 48.8373 69.9798 51.0573 72.2399 51.0573C74.5 51.0372 75.2799 48.8373 75.2799 46.9574ZM36.6799 43.9574C36.6799 43.2573 36.6999 42.5775 36.7599 41.8772H32.7999V42.2374H32.8797C33.3998 42.2374 33.7997 42.6574 33.7997 43.1774C33.7997 43.4373 33.8199 43.6973 33.8199 43.9574V49.9572C33.8199 50.6573 33.7997 51.3374 33.7399 52.0172H36.7798C36.7198 51.3374 36.6999 50.6373 36.6999 49.9572L36.6799 43.9574Z" fill="white"/>
<path d="M23.0199 57.5774C31.0199 55.7773 39.32 54.8373 47.8399 54.8373C59.8799 54.8373 71.4999 56.6374 82.44 59.9974C82.48 60.0173 82.5 60.0574 82.5 60.0975C82.5 60.1373 82.44 60.1774 82.3999 60.1575C71.1599 58.3173 59.6399 57.2574 47.9 57.0574C39.62 56.9174 31.3199 57.1974 23.08 57.9173C23.0001 57.9173 22.92 57.8773 22.8999 57.7973C22.88 57.6973 22.94 57.5973 23.0199 57.5774Z" fill="#ED1A3A"/>
</g>
<defs>
<clipPath id="clip0">
<rect width="100" height="100" fill="white" transform="translate(0 0.5)"/>
</clipPath>
</defs>
</svg>
