<svg width="100" height="100" viewBox="0 0 100 100" fill="none" xmlns="http://www.w3.org/2000/svg">
<circle cx="50" cy="50" r="49.5" fill="white" stroke="#7DAFFC"/>
<path d="M59.6538 49.9998C59.6538 55.2692 55.35 59.6132 49.9599 59.6132C44.6909 59.6132 40.4673 55.3098 40.4673 49.9998C40.4673 44.6101 44.6909 40.3063 49.9599 40.3063C55.35 40.306 59.6538 44.6101 59.6538 49.9998ZM49.9599 70.9155C38.5368 70.9155 29.1247 61.5034 29.1247 49.9599C29.1247 38.3352 38.5365 28.9231 49.9599 28.9231C61.5843 28.9231 70.9159 38.3352 70.9159 49.9599C70.876 61.5034 61.5843 70.9155 49.9599 70.9155ZM59.4525 26.7511C56.0741 26.7511 52.9369 27.4353 49.9599 28.682C47.1849 27.4353 43.9266 26.7511 40.6283 26.7511C27.757 26.7511 17.5 37.048 17.5 49.9998C17.5 62.7907 27.7972 73.2489 40.6283 73.2489C43.8863 73.2489 47.1443 72.4845 49.9599 71.2375C52.9369 72.4845 56.1144 73.2489 59.4525 73.2489C72.2434 73.2489 82.5 62.791 82.5 49.9998C82.5 37.048 72.2437 26.7511 59.4525 26.7511Z" fill="#D62427"/>
</svg>
