<svg width="100" height="101" viewBox="0 0 100 101" fill="none" xmlns="http://www.w3.org/2000/svg">
<g clip-path="url(#clip0)">
<circle cx="50" cy="50.5" r="49.5" fill="white" stroke="#7DAFFC"/>
<path fill-rule="evenodd" clip-rule="evenodd" d="M37.404 40.2358L23.875 31.2172C26.0525 28.2633 28.6956 25.6197 31.8049 23.5981L43.4683 35.5717C41.1348 36.6599 38.9589 38.2154 37.404 40.2358ZM33.8264 48.7883L18.4323 42.879C19.3657 39.1476 20.7657 35.7271 22.7857 32.6162L36.6271 41.1687C35.0706 43.3462 34.1389 45.9893 33.8264 48.7883ZM52.3321 55.7865L35.6932 49.4104C36.1599 46.9227 37.2481 44.435 38.803 42.4134L52.3321 50.9659V55.7865ZM52.3321 50.1884L39.4256 41.6365C40.9805 39.7697 43.0021 38.3702 45.3339 37.4379L52.3321 44.435V50.1884ZM19.3657 61.2286C18.1215 57.8075 17.5 54.2316 17.5 50.4992C17.5 48.3222 17.6543 46.3006 18.1215 44.279L33.8264 49.8771C33.8264 50.0319 33.8264 50.1879 33.8264 50.4992C33.8264 54.231 35.0706 57.8075 37.4046 60.6066H37.5589C36.1605 58.1188 35.3814 55.3193 35.3814 52.3654C35.3814 51.7433 35.3814 51.1212 35.5378 50.4992L52.3326 56.4086V61.2286H19.3657ZM20.4533 64.1842C20.299 63.5621 19.9883 62.94 19.6759 62.318H29.4725L31.1833 64.1842H45.6441L42.5349 67.4499H24.6519C24.1857 65.7385 22.4749 64.339 20.4533 64.1842ZM57.4629 64.9616C58.5528 64.339 59.6404 63.5621 60.5727 62.7846C61.1953 62.318 61.8185 61.6959 62.2835 61.0738C64.7718 58.1199 66.3262 54.5424 66.3262 50.5003C66.3262 41.4816 59.0178 34.1722 49.9997 34.1722C48.133 34.1722 46.2679 34.4829 44.713 35.105L33.3614 22.5099C38.182 19.7108 43.9355 18 49.9997 18C68.037 18 82.5 32.4619 82.5 50.5003C82.5 68.3827 68.037 83 49.9997 83C41.1348 83 33.049 79.4235 27.1407 73.5147H66.9494L67.2596 73.2034L25.2734 71.4931L24.9632 71.1818H69.4376L69.5919 70.8716L23.0981 68.6946L22.9416 68.5387H40.9805C40.9805 68.5387 50.1546 68.8494 57.4629 64.9616Z" fill="#E92A35"/>
</g>
<defs>
<clipPath id="clip0">
<rect width="100" height="100" fill="white" transform="translate(0 0.5)"/>
</clipPath>
</defs>
</svg>
