<svg width="100" height="100" viewBox="0 0 100 100" fill="none" xmlns="http://www.w3.org/2000/svg">
<circle cx="50" cy="50" r="49.5" fill="white" stroke="#7DAFFC"/>
<path d="M60.4095 17.5H39.665L24.343 32.8205V40.5117V40.548V48.3093L39.5909 63.5587H60.3355L75.657 48.2372V40.548V40.5117V32.7485L60.4095 17.5ZM67.6412 40.5117L49.9642 58.1887L32.3215 40.548H32.3588L50.0363 22.87L67.678 40.5117H67.6412V40.5117Z" fill="#ED1C24"/>
<path d="M60.4095 36.4423H39.665L24.343 51.7633V59.452V59.4883V67.252L39.5909 82.5H60.3355L75.657 67.18V59.4883V59.452V51.6912L60.4095 36.4423ZM67.6412 59.452L49.9642 77.1309L32.3215 59.4883H32.3588L50.0363 41.8113L67.678 59.452H67.6412V59.452Z" fill="#ED1C24"/>
</svg>
