<svg width="100" height="100" viewBox="0 0 100 100" fill="none" xmlns="http://www.w3.org/2000/svg">
<circle cx="50" cy="50" r="49.5" fill="#82CDE4" stroke="#7DAFFC"/>
<path d="M80.1027 37.7155H19.8973V62.2845H80.1027V37.7155Z" fill="#82CDE4"/>
<path d="M22.4132 45.7044C21.9445 45.7044 21.5076 46.1686 21.4288 46.7579L21.0724 49.3496C20.9928 49.9397 21.2992 50.4056 21.7666 50.4056C22.2372 50.4056 22.6714 49.9397 22.755 49.3496L23.1088 46.7579C23.1903 46.1686 22.8834 45.7044 22.4132 45.7044ZM17.5 56.0945L18.7258 47.4823C18.9999 45.5836 21.0062 43.9258 23.159 43.9258C25.3422 43.9258 26.3761 45.4414 26.1655 46.8981L25.9882 48.1494C25.8413 49.202 25.0657 50.2124 23.6921 50.9624L25.0984 53.3488C25.26 53.6096 25.3234 54.0125 25.26 54.441C25.1155 55.3494 24.4335 56.0947 23.692 56.0947C23.2864 56.0947 22.9629 55.8727 22.7704 55.5321L20.6991 51.9513L20.3438 54.4615C20.2134 55.3671 19.5334 56.0947 18.8072 56.0947H17.5V56.0945Z" fill="#0260AA"/>
<path d="M27.5367 45.8246C27.6827 44.7728 28.5065 43.9057 29.3471 43.9057C30.1905 43.9057 30.7538 44.773 30.6087 45.8246L30.0139 50.1727H31.6759L32.291 45.8246C32.4368 44.7728 33.2616 43.9057 34.1009 43.9057C34.9433 43.9057 35.5116 44.773 35.3634 45.8246L34.2008 54.1731C34.0535 55.2256 33.2316 56.0941 32.3882 56.0941C31.5476 56.0941 30.9822 55.2255 31.1271 54.1731L31.4994 51.4687H29.8167L29.4444 54.1731C29.2985 55.2256 28.4765 56.0941 27.6341 56.0941H26.1128L27.5367 45.8246Z" fill="#0260AA"/>
<path d="M40.3908 45.7035C39.8579 45.7035 39.3705 46.2488 39.2552 46.9167L39.062 48.1086C38.9475 48.7777 39.3225 49.3227 39.8581 49.3227C40.3909 49.3227 40.892 48.7777 41.0038 48.1086L41.1958 46.9167C41.3119 46.2488 40.9232 45.7035 40.3908 45.7035ZM39.7406 50.1291C39.2065 50.1291 38.7067 50.6792 38.6099 51.3437L38.3692 53.0851C38.272 53.7496 38.628 54.2944 39.159 54.2944C39.6929 54.2944 40.212 53.7496 40.3072 53.0851L40.5508 51.3437C40.6476 50.6791 40.2776 50.1291 39.7406 50.1291ZM43.9001 47.4008C43.7683 48.2131 43.3323 48.9987 42.5571 49.7269C43.0908 50.2929 43.3156 51.039 43.2008 51.7706L43.0907 52.5155C42.799 54.4401 40.8079 56.0938 38.6753 56.0938H35.2945L36.5398 47.4671C36.8148 45.5624 38.8212 43.9055 40.9713 43.9055C43.1545 43.9055 44.2061 45.4204 43.9807 46.8747L43.9001 47.4008Z" fill="#0260AA"/>
<path d="M59.0775 51.9504H57.8535V54.717H59.0086C60.1796 54.717 60.77 54.1405 60.77 53.272C60.7698 52.5057 60.137 51.9504 59.0775 51.9504ZM57.8534 48.1377V50.7121H58.8842C59.5582 50.7121 60.2187 50.2203 60.2187 49.3924C60.2187 48.6327 59.7645 48.1377 58.7736 48.1377H57.8534ZM59.0775 55.9566H56.4096V46.885H59.1606C60.8941 46.885 61.6941 48.0425 61.6941 49.1167C61.6941 49.9549 61.2913 50.7016 60.5351 51.0448V51.0571C61.4857 51.2621 62.2704 52.1296 62.2704 53.26C62.2702 54.5257 61.4027 55.9566 59.0775 55.9566Z" fill="#0260AA"/>
<path d="M66.8949 52.917L65.8349 52.9571C64.859 52.9826 64.4322 53.3301 64.4322 53.9312C64.4322 54.5123 64.8166 54.9378 65.5613 54.9378C66.236 54.9378 66.6615 54.6346 66.8949 54.4176V52.917V52.917ZM67.2797 55.9562L67.0063 55.3526C66.592 55.7385 65.9862 56.094 65.0788 56.094C63.9357 56.094 62.9994 55.3073 62.9994 54.0454C62.9994 52.7081 64.0064 51.9654 65.6989 51.8953L66.9123 51.8553V51.6613C66.9123 50.7552 66.3335 50.4228 65.5993 50.4228C64.859 50.4228 64.3076 50.6862 63.9105 50.947L63.4299 50.0266C64.2666 49.4425 65.0369 49.2788 65.8917 49.2788C67.378 49.2788 68.3562 49.9024 68.3562 51.5947V53.977C68.3562 55.2146 68.3814 55.695 68.4769 55.9564H67.2797V55.9562Z" fill="#0260AA"/>
<path d="M74.005 55.9562V52.0632C74.005 51.3618 73.8678 50.5593 72.9888 50.5593C72.3369 50.5593 71.7205 50.9469 71.2102 51.3448V55.956H69.7801V49.4424H70.9785L71.1439 50.1777C71.8723 49.629 72.5591 49.2785 73.4581 49.2785C74.4194 49.2785 75.437 49.9146 75.437 51.6075V55.9559H74.005V55.9562Z" fill="#0260AA"/>
<path d="M80.7805 55.9562L78.3024 52.8037H78.2865V55.9562H76.8572V46.2111H78.2865V51.6885H78.3024L80.4923 49.4425H82.2125L79.4725 52.2014L82.5 55.9562H80.7805Z" fill="#0260AA"/>
<path d="M55.4726 49.9969L49.9102 55.5622L44.3486 49.9969L49.9102 44.438L55.4726 49.9969Z" fill="#E63137"/>
</svg>
