<svg width="100" height="100" viewBox="0 0 100 100" fill="none" xmlns="http://www.w3.org/2000/svg">
<circle cx="50" cy="50" r="49.5" fill="white" stroke="#7DAFFC"/>
<path fill-rule="evenodd" clip-rule="evenodd" d="M41.6786 80.2727C39.9761 81.287 38.4316 81.8937 36.8093 81.8937C32.6125 81.8937 29.1042 78.4552 28.9031 74.3239L37.08 69.4523L49.7926 75.1342L41.6786 80.2727Z" fill="#71B0D1"/>
<path fill-rule="evenodd" clip-rule="evenodd" d="M46.5383 59.343L40.467 56.6669C37.7527 55.4558 35.1904 54.4434 35.1904 51.4587C35.1904 49.9097 35.6605 49.0977 36.4015 48.2913L49.2483 53.9546L46.0623 55.7933C45.1867 56.3316 44.5781 56.8034 44.5781 57.4805C44.5781 58.2124 45.4122 58.8314 46.5383 59.343Z" fill="#A4D0A0"/>
<path fill-rule="evenodd" clip-rule="evenodd" d="M52.505 31.3142L46.2785 35.0926C45.725 35.4259 44.986 35.9659 44.986 36.7938C44.986 37.7374 46.4242 38.4598 47.7021 39.0672L39.9097 35.6296C37.6142 34.6195 35.3249 33.4729 35.3249 30.7059C35.3249 29.5426 35.6605 28.5993 36.2007 27.7932L53.0436 17.5C55.0618 18.645 57.0198 20.9594 57.0198 24.064C57.0198 27.3856 55.3365 29.6104 52.505 31.3142Z" fill="#71B0D1"/>
<path fill-rule="evenodd" clip-rule="evenodd" d="M65.7525 43.4845L64.2038 44.3604L51.3381 38.6804L66.2944 29.6778C68.3133 30.8423 70.2905 33.134 70.2905 36.2359C70.2905 39.5595 68.6522 41.8485 65.7525 43.4845Z" fill="#A4D0A0"/>
<path fill-rule="evenodd" clip-rule="evenodd" d="M54.8914 54.4079L62.501 57.7516C65.3521 59.0289 66.2279 60.5281 66.2279 62.4222C66.2279 63.4984 65.6212 64.5789 64.7473 65.3215L51.9494 59.6373L54.1139 58.4242C55.9451 57.4141 56.5538 56.8031 56.5538 56.1313C56.5538 55.431 56.125 54.969 54.8914 54.4079Z" fill="#71B0D1"/>
<path fill-rule="evenodd" clip-rule="evenodd" d="M68.4531 82.5C65.2156 80.006 61.7624 78.3189 57.564 76.414L38.1584 67.8295C33.2813 65.6555 30.0496 62.7591 30.0496 57.884C30.0496 53.1453 32.3432 50.8517 35.3246 48.9661L36.4012 48.2916C35.6605 49.0981 35.19 49.9101 35.19 51.4591C35.19 54.4438 37.7524 55.4565 40.4666 56.6673L63.0433 66.6167C66.9709 68.3033 70.5646 71.2032 70.5646 76.1429C70.5649 78.8591 69.532 81.2869 68.4531 82.5Z" fill="#22A947"/>
<path fill-rule="evenodd" clip-rule="evenodd" d="M66.162 64.4421L64.7476 65.3215C65.6215 64.579 66.2282 63.4982 66.2282 62.4196C66.2282 60.5301 65.351 59.029 62.5013 57.7517L38.3596 47.1251C33.4861 44.971 30.4512 42.1887 30.4512 37.3341C30.4512 32.8652 32.677 29.9473 36.2006 27.7932C35.6607 28.5997 35.3248 29.5426 35.3248 30.7059C35.3248 33.4729 37.6141 34.6198 39.9096 35.6296L63.3768 45.9808C67.642 47.869 71.0969 50.7195 71.0969 55.9296C71.0972 59.9918 69.1982 62.5526 66.162 64.4421Z" fill="#0072A9"/>
</svg>
