<svg width="100" height="100" viewBox="0 0 100 100" fill="none" xmlns="http://www.w3.org/2000/svg">
<circle cx="50" cy="50" r="49.5" fill="white" stroke="#7DAFFC"/>
<path d="M22.1296 56.6959C22.1252 57.0495 22.5717 57.0878 22.8422 57.0878H22.9879C23.0143 57.0878 23.0358 57.087 23.0677 57.0835C23.7064 57.0504 23.7016 56.8097 23.7016 56.696C23.6996 56.636 23.6996 56.5736 23.7016 56.5032V43.3066C23.7064 42.9539 23.2575 42.9122 22.988 42.9122H22.8423C22.572 42.9122 22.1254 42.954 22.1297 43.3066C22.1297 43.3813 22.1275 43.4526 22.1275 43.5271V56.4733C22.1275 56.4806 22.1275 56.4906 22.1297 56.51" fill="#E2051D"/>
<path d="M13.7455 56.6959C13.7406 57.0495 14.1878 57.0878 14.458 57.0878H14.6035C14.6301 57.0878 14.6518 57.087 14.6833 57.0835C15.3222 57.0504 15.3172 56.8097 15.3172 56.696C15.3158 56.636 15.3158 56.5736 15.3172 56.5032V43.3066C15.3222 42.9539 14.8733 42.9122 14.6036 42.9122H14.4581C14.188 42.9122 13.7407 42.954 13.7457 43.3066C13.7457 43.3813 13.7425 43.4526 13.7425 43.5271V56.4733C13.7425 56.4806 13.7425 56.4906 13.7457 56.51" fill="#E2051D"/>
<path d="M16.5398 56.6959C16.5363 57.0495 16.9825 57.0878 17.2529 57.0878H17.3984C17.4249 57.0878 17.4468 57.087 17.4785 57.0835C18.1168 57.0504 18.1125 56.8097 18.1125 56.696C18.1097 56.636 18.1097 56.5736 18.1125 56.5032V43.3066C18.1168 42.9539 17.668 42.9122 17.3985 42.9122H17.253C16.9827 42.9122 16.5363 42.954 16.54 43.3066C16.54 43.3813 16.5379 43.4526 16.5379 43.5271V56.4733C16.5379 56.4806 16.5379 56.4906 16.54 56.51" fill="#E2051D"/>
<path d="M19.3351 56.6959C19.3309 57.0495 19.7772 57.0878 20.0476 57.0878H20.1931C20.2195 57.0878 20.2412 57.087 20.2724 57.0835C20.912 57.0504 20.9064 56.8097 20.9064 56.696C20.9051 56.636 20.9051 56.5736 20.9064 56.5032V43.3066C20.912 42.9539 20.4623 42.9122 20.1931 42.9122H20.0476C19.7773 42.9122 19.3309 42.954 19.3351 43.3066C19.3351 43.3813 19.3318 43.4526 19.3318 43.5271V56.4733C19.3318 56.4806 19.3318 56.4906 19.3351 56.51" fill="#E2051D"/>
<path d="M12.0262 49.2149C11.6726 49.2106 11.6346 49.6571 11.6346 49.9283V50.0743C11.6346 50.1007 11.6354 50.1218 11.6377 50.1532C11.6708 50.7912 11.9117 50.7869 12.0261 50.7869C12.0864 50.7852 12.1476 50.7852 12.2192 50.7869H25.4152C25.7679 50.7912 25.8094 50.343 25.8094 50.0743V49.9283C25.8094 49.6571 25.7679 49.2105 25.4152 49.2149C25.3403 49.2149 25.2694 49.2125 25.194 49.2125H12.2479C12.2407 49.2125 12.2325 49.2125 12.2121 49.2149" fill="#E2051D"/>
<path d="M45.3492 54.2664H45.3217C43.1579 54.2664 42.3149 53.0551 42.3149 49.9495C42.3149 46.8773 43.1237 45.7355 45.2993 45.7355H45.3695C47.546 45.7355 48.3552 46.8773 48.3552 49.9495C48.3552 53.055 47.5122 54.2664 45.3492 54.2664ZM45.3386 43.951C41.5697 43.951 39.8895 45.8072 39.8895 49.9693C39.8895 54.0344 41.6408 56.0244 45.2433 56.0495H45.419C49.028 56.0313 50.7832 54.0421 50.7832 49.9693C50.7832 45.8071 49.1043 43.951 45.3386 43.951Z" fill="#123274"/>
<path d="M30.2038 55.1283C30.9684 55.7184 32.0079 55.9704 33.6812 55.9704H33.7873C35.4729 55.9704 36.5158 55.7184 37.2739 55.1291C38.3737 54.2924 38.5593 53.308 38.5593 51.4162L38.561 44.629C38.5621 44.5302 38.5642 44.4063 38.4546 44.2952C38.281 44.1193 37.8944 44.0307 37.3053 44.0307C36.7217 44.0307 36.3384 44.1193 36.1656 44.2945C36.0546 44.406 36.0567 44.5304 36.0579 44.6299L36.0584 45.853V51.7214C36.059 52.9024 36.059 53.1483 35.5336 53.581C35.0502 53.9738 34.3196 54.0249 33.7378 54.0249C33.1558 54.0249 32.4257 53.9738 31.9425 53.581C31.4194 53.1518 31.4194 52.9101 31.4196 51.7476L31.42 44.6301C31.4222 44.5305 31.4231 44.4065 31.3129 44.2946C31.1399 44.1195 30.7555 44.0308 30.1697 44.0308C29.5828 44.0308 29.1978 44.1194 29.0251 44.2947C28.9146 44.4064 28.9162 44.5304 28.9173 44.6295L28.9179 44.6586V51.4163C28.9179 53.3068 29.1035 54.2915 30.2038 55.1283Z" fill="#123274"/>
<path d="M57.2294 54.2045H54.5764V50.6496H57.4219C58.9994 50.6496 59.3165 51.3361 59.3165 52.4449C59.3165 53.9386 58.7701 54.2045 57.2294 54.2045ZM54.5782 45.7554H57.2848C58.6867 45.7554 58.7978 46.4657 58.7978 47.3948C58.7978 48.5053 58.2887 48.9787 57.0968 48.9787H54.5782V45.7554V45.7554ZM60.1945 44.735C59.572 44.2726 58.8293 44.1083 57.3559 44.1083H52.5103C52.29 44.1083 52.111 44.2868 52.111 44.5063V55.4915C52.111 55.7132 52.29 55.892 52.5103 55.892H57.5935C58.9733 55.892 59.9381 55.8477 60.7391 55.2437C61.6379 54.5468 61.8271 53.4051 61.8271 52.57C61.8271 51.4673 61.4569 50.5941 60.7847 50.1118C60.4932 49.8945 60.1486 49.7642 59.8204 49.649L59.6008 49.572L59.8108 49.4714C60.8006 48.9989 61.1631 48.3418 61.1474 47.0467C61.1388 46.441 61.0037 45.334 60.1945 44.735Z" fill="#123274"/>
<path d="M84.7145 49.8063C84.7145 49.8063 84.7536 49.8109 84.7775 49.8431C84.8017 49.8753 84.807 49.9215 84.807 49.9215V52.3069C84.807 52.4007 84.7105 52.4196 84.7105 52.4196H84.5124C84.4024 52.4196 84.3972 52.3163 84.3972 52.3163V50.1211C84.3972 50.1211 84.3619 50.1584 84.2388 50.2606C84.1153 50.3619 83.9563 50.4802 83.865 50.5463C83.7737 50.6115 83.7135 50.5567 83.7135 50.5567C83.7135 50.5567 83.636 50.488 83.5713 50.4143C83.5069 50.3412 83.5823 50.2622 83.5823 50.2622C83.5823 50.2622 83.7661 50.1321 83.9385 49.9925C84.1118 49.8533 84.3343 49.6223 84.5312 49.3934C84.7284 49.1641 84.9735 48.8077 85.043 48.7075C85.1128 48.6066 85.1987 48.674 85.1987 48.674C85.1987 48.674 85.2588 48.7125 85.3405 48.7719C85.4221 48.8302 85.3784 48.9204 85.3784 48.9204C85.3784 48.9204 85.3501 48.9673 85.1771 49.2224C85.0041 49.4765 84.7145 49.8063 84.7145 49.8063ZM85.6956 47.8813H88.0838C88.1881 47.8813 88.2056 47.974 88.2056 47.974V48.1514C88.2056 48.269 88.0865 48.269 88.0865 48.269H85.7029C85.5976 48.269 85.5882 48.1577 85.5882 48.1577V48.0034C85.5883 47.8885 85.6956 47.8813 85.6956 47.8813ZM87.4364 49.7273L87.4384 51.821C87.4384 51.9574 87.3897 52.1312 87.2263 52.2174C87.0629 52.3035 86.8271 52.3164 86.6554 52.3191C86.4833 52.3216 86.4894 52.2523 86.4894 52.2523C86.4894 52.2523 86.4573 52.1879 86.4434 52.0516C86.4302 51.9141 86.5881 51.9306 86.5881 51.9306C86.5881 51.9306 86.8353 51.9282 86.9395 51.9013C87.0438 51.8742 87.0264 51.8369 87.0264 51.8369V49.7275H85.4344C85.3299 49.7275 85.3209 49.6162 85.3209 49.6162V49.4624C85.3209 49.3469 85.4274 49.3398 85.4274 49.3398H88.244C88.3482 49.3398 88.3655 49.4327 88.3655 49.4327V49.6092C88.3655 49.7275 88.2463 49.7275 88.2463 49.7275H87.4364V49.7273ZM79.8514 48.6613H81.4344V48.1927H79.8514V48.6613ZM79.8514 49.494H81.4344V49.0441H79.8514V49.494ZM79.4429 47.927C79.4429 47.927 79.4506 47.807 79.5548 47.807H81.7098C81.7098 47.807 81.8193 47.812 81.8193 47.9231V49.7835C81.8193 49.7835 81.8133 49.8968 81.7098 49.8968H79.8494V51.7959C79.8494 51.7959 80.2039 51.5457 80.3309 51.4447C80.4568 51.344 80.4733 51.3292 80.4733 51.3292C80.4733 51.3292 80.5498 51.2562 80.6306 51.3308C80.6366 51.338 80.7634 51.4857 80.7634 51.4857C80.7634 51.4857 80.8248 51.5666 80.7455 51.6369C80.7168 51.662 80.3829 51.8912 80.2118 52.0071C80.0405 52.1234 79.8355 52.2893 79.7947 52.3162C79.7548 52.3432 79.6452 52.3989 79.5296 52.3197C79.4418 52.2606 79.4445 52.1156 79.4445 52.1156L79.4429 47.927ZM80.5412 50.0147C80.5412 50.0147 80.5957 50.4134 80.8281 50.8315C80.8297 50.8114 80.8402 50.7723 80.8872 50.7409C80.9545 50.6958 81.4484 50.3898 81.5893 50.2891C81.7296 50.1893 81.7728 50.1577 81.7728 50.1577C81.7728 50.1577 81.877 50.104 81.9331 50.2023C81.9597 50.2492 82.0113 50.3587 82.0113 50.3587C82.0113 50.3587 82.0404 50.4344 81.9978 50.4864C81.9553 50.5378 81.0954 51.0886 81.0954 51.0886C81.0954 51.0886 81.0658 51.1137 81.0176 51.1147C81.0605 51.1704 81.2862 51.4509 81.6632 51.6725C81.7653 51.7326 82.0449 51.8604 82.0449 51.8604C82.0449 51.8604 82.1318 51.909 82.0917 52.0097C82.0518 52.1095 81.9979 52.1931 81.9979 52.1931C81.9979 52.1931 81.9671 52.2713 81.8301 52.2037C81.6943 52.1367 81.0664 51.9064 80.6311 51.2546C80.1951 50.6019 80.1349 50.0753 80.1349 50.0753C80.1349 50.0753 80.1277 49.9815 80.2156 49.9611C80.3025 49.9408 80.4253 49.9142 80.4253 49.9142C80.4253 49.9142 80.5166 49.9165 80.5405 50.0155L80.5412 50.0147ZM77.3608 50.3619C77.3608 50.3056 77.4059 50.2606 77.4614 50.2606H78.1866V49.6707H77.7024C77.6082 49.6707 77.5992 49.5772 77.5992 49.5772V49.4721L77.5811 49.4991C77.5167 49.5952 77.4208 49.5657 77.4208 49.5657C77.4208 49.5657 77.3304 49.5118 77.2487 49.4403C77.1662 49.3695 77.2446 49.2847 77.2446 49.2847C77.2446 49.2847 77.4382 49.0613 77.6642 48.7038C77.8898 48.3461 78.1335 47.7677 78.1761 47.6603C78.2186 47.5532 78.3072 47.5844 78.3072 47.5844C78.3072 47.5844 78.4123 47.618 78.5105 47.656C78.6086 47.694 78.5577 47.8167 78.5577 47.8167C78.5577 47.8167 78.544 47.8433 78.3523 48.277C78.3298 48.3281 78.3036 48.3812 78.2758 48.4354H79.1717C79.1717 48.4354 79.2834 48.4398 79.2834 48.5585V48.6878C79.2834 48.6878 79.2814 48.8017 79.1495 48.8017H78.1646C78.1646 48.8017 78.1184 48.7926 78.0924 48.761C77.935 49.0222 77.7783 49.2459 77.7491 49.2868H79.0918C79.2101 49.2868 79.2214 49.3825 79.2214 49.3825V49.5519C79.2214 49.6636 79.1092 49.6708 79.1092 49.6708H78.5936L78.589 49.8759V50.2607H79.2404C79.2967 50.2607 79.3417 50.3058 79.3417 50.362V50.5456C79.3417 50.602 79.2965 50.6466 79.2404 50.6466H78.589V51.6848C78.7099 51.5761 79.0658 51.2555 79.1121 51.2164C79.1676 51.1697 79.2344 51.2148 79.2344 51.2148C79.2344 51.2148 79.2726 51.2521 79.3623 51.3443C79.4514 51.4356 79.3595 51.5233 79.3595 51.5233C79.3595 51.5233 78.6409 52.1464 78.589 52.1933C78.5375 52.2401 78.4258 52.3289 78.3054 52.2647C78.1845 52.1994 78.1868 52.0699 78.1868 52.0699V50.6466H77.4615C77.406 50.6466 77.3609 50.602 77.3609 50.5456V50.3619H77.3608ZM73.4657 47.6035C73.4929 47.6055 73.6148 47.6322 73.6763 47.6476C73.7094 47.649 73.7597 47.6959 73.7597 47.7422C73.7597 48.0512 73.7616 48.3614 73.7641 48.6761C73.7874 48.6779 74.1005 48.548 74.2038 48.5067C74.4288 48.417 74.6678 48.3104 74.8859 48.202C74.9727 48.158 75.0575 48.1118 75.1413 48.0656C75.2415 48.0123 75.3056 47.9507 75.3669 47.9507C75.3713 47.9507 75.4245 47.9495 75.4543 47.9946C75.4543 47.9952 75.542 48.1291 75.558 48.1845C75.5638 48.2035 75.5646 48.2301 75.5572 48.2456C75.5315 48.3017 75.4584 48.3324 75.4215 48.3528C75.1629 48.4987 74.9501 48.6058 74.6847 48.7266C74.3973 48.8572 74.0875 48.9848 73.7939 49.0915C73.7873 49.0964 73.7675 49.0975 73.7623 49.1107V49.837C73.7631 49.8662 73.7721 49.888 73.803 49.9038C73.8178 49.912 73.8717 49.9134 73.8822 49.9134H75.13C75.1308 49.9134 75.2064 49.9225 75.262 49.8124C75.2639 49.8084 75.2872 49.7627 75.2947 49.7432C75.3202 49.6783 75.3372 49.6203 75.3529 49.5582C75.3713 49.4831 75.3652 49.3407 75.4887 49.3407L75.526 49.3465C75.5304 49.3477 75.6557 49.39 75.7247 49.4153C75.7397 49.4211 75.7703 49.448 75.7815 49.4796C75.7923 49.5099 75.784 49.5463 75.784 49.5463C75.784 49.5535 75.7538 49.6689 75.7451 49.7014C75.7313 49.7585 75.7046 49.8284 75.685 49.8826C75.6308 50.0325 75.4911 50.2376 75.3237 50.2822C75.2834 50.296 75.2331 50.3072 75.195 50.3072L73.8118 50.304C73.7246 50.2943 73.6377 50.2795 73.5596 50.2317V50.8766H75.6745C75.717 50.8766 75.7665 50.9234 75.7665 50.9974L75.7648 51.1373C75.7648 51.186 75.717 51.246 75.6653 51.246H73.5581V52.3087C73.5584 52.3548 73.5088 52.4104 73.4533 52.4104L73.239 52.4078C73.209 52.4078 73.1458 52.3731 73.1458 52.275C73.1458 52.275 73.149 51.4763 73.1477 51.2477L71.1252 51.246C71.0826 51.2492 71.0163 51.1826 71.0201 51.1407L71.0226 50.9679C71.0226 50.9201 71.086 50.875 71.1218 50.875H73.146C73.1498 50.7548 73.1452 50.298 73.1452 50.298C73.1481 50.2562 73.1177 50.0904 73.2525 50.0778C73.2637 50.0767 73.2821 50.0811 73.2821 50.0811L73.4157 50.1096C73.4227 50.0971 73.3941 50.0496 73.3878 50.0342C73.3751 50.004 73.349 49.9231 73.349 49.8101L73.3534 49.2449C73.3048 49.2587 73.2629 49.2752 73.2238 49.2834L72.8086 49.4033C72.6988 49.4017 72.6919 49.3516 72.6595 49.2719C72.6446 49.2318 72.628 49.1823 72.6163 49.1403C72.6163 49.1382 72.5953 49.0349 72.752 49.0046C72.818 48.9914 73.0331 48.927 73.0919 48.91C73.2098 48.8734 73.2739 48.8517 73.3504 48.8214C73.3512 48.743 73.3529 48.6613 73.3529 48.5821C73.3529 48.2902 73.3499 47.9968 73.3514 47.7045C73.3514 47.6933 73.3566 47.6789 73.361 47.6702C73.381 47.6299 73.4231 47.6035 73.4657 47.6035ZM72.4947 48.5012V50.2927C72.4947 50.2927 72.4947 50.4054 72.3554 50.4054H72.1836C72.1836 50.4054 72.0819 50.3873 72.0819 50.2891V48.7256C72.0819 48.7256 71.8429 48.8461 71.6639 48.9403C71.4848 49.0343 71.3947 49.07 71.3947 49.07C71.3947 49.07 71.3191 49.0987 71.2569 49.0139L71.1565 48.8781C71.1565 48.8781 71.0948 48.7616 71.2232 48.7123C71.3513 48.6631 71.7974 48.4921 72.2349 48.1978C72.6718 47.9045 72.9206 47.6878 72.9206 47.6878C72.9206 47.6878 73.0008 47.596 73.0883 47.6685C73.1335 47.7065 73.2142 47.7934 73.2142 47.7934C73.2142 47.7934 73.3028 47.8876 73.2072 47.97C73.1108 48.0531 72.877 48.2417 72.7601 48.3242C72.6432 48.4071 72.4947 48.5012 72.4947 48.5012ZM67.0284 49.0056C67.0284 49.0056 67.06 48.3906 67.06 48.1118V47.7954C67.06 47.7954 67.0766 47.6706 67.1995 47.6944C67.3236 47.7192 67.3731 47.7405 67.3731 47.7405C67.3731 47.7405 67.4477 47.7547 67.4496 47.8596C67.4507 47.9644 67.4535 48.2333 67.4507 48.4281C67.4478 48.6222 67.4279 48.8647 67.4279 48.8647L67.4175 49.0105H69.4768C69.4768 49.0105 69.6095 48.9851 69.6095 49.1421V49.2843C69.6095 49.2843 69.6243 49.3927 69.4821 49.3927H67.3688L67.3367 49.5653L67.527 49.5175C67.527 49.5175 67.6394 49.4933 67.6694 49.6072C67.6986 49.7214 67.7909 50.0214 67.8836 50.2238C67.9763 50.4262 68.1292 50.7556 68.4045 51.0641C68.6809 51.3725 68.946 51.5456 68.946 51.5456C68.946 51.5456 69.1178 51.6567 69.2413 51.7218C69.3642 51.7878 69.4916 51.808 69.4355 51.946C69.3792 52.0835 69.3509 52.1172 69.3509 52.1172C69.3509 52.1172 69.3187 52.2137 69.138 52.1249C68.9567 52.0364 68.5939 51.8424 68.2959 51.5428C67.9988 51.2421 67.8528 51.0276 67.7293 50.8148C67.6058 50.6017 67.4999 50.3618 67.4999 50.3618C67.4999 50.3618 67.3971 50.1135 67.3688 50.0214C67.3411 49.929 67.2896 49.7744 67.2896 49.7744C67.2896 49.7744 67.201 50.1175 67.0933 50.3715C66.9846 50.6245 66.7845 51.012 66.5927 51.2205C66.4012 51.4302 66.2417 51.6358 65.849 51.8671C65.5822 52.0235 65.3719 52.1016 65.3719 52.1016C65.3719 52.1016 65.3103 52.1423 65.2528 52.1189C65.1951 52.0946 65.1911 52.0685 65.1884 52.0572L65.1387 51.8547C65.1387 51.8547 65.1171 51.7703 65.2181 51.7244C65.3181 51.6789 65.7013 51.5237 65.9618 51.2863C66.2216 51.0493 66.4343 50.8066 66.5407 50.6042C66.6345 50.426 66.7415 50.2409 66.822 49.9877C66.9027 49.734 66.9772 49.3952 66.9772 49.3952H65.0827C65.0827 49.3952 64.9754 49.3779 64.9754 49.2918V49.1067C64.9754 49.1067 64.9754 49.0054 65.1225 49.0054H67.0284V49.0056ZM84.9051 47.6151C85.0041 47.6592 85.0805 47.7037 85.0805 47.7037C85.0805 47.7037 85.1659 47.7584 85.1102 47.8549C85.0535 47.9511 84.8314 48.285 84.5923 48.5587C84.3542 48.832 84.1799 48.9631 84.1345 49.006C84.0891 49.0486 83.9989 49.1047 83.9989 49.1047C83.9989 49.1047 83.9224 49.1468 83.8677 49.0885C83.8126 49.0313 83.7294 48.9361 83.7294 48.9361C83.7294 48.9361 83.6702 48.8424 83.7556 48.7742C83.8394 48.7061 84.1197 48.5074 84.3715 48.1936C84.6235 47.8802 84.7619 47.6535 84.7619 47.6535C84.7619 47.6535 84.8056 47.5706 84.9051 47.6151Z" fill="#123274"/>
</svg>
